<svg xmlns="http://www.w3.org/2000/svg" viewBox="0 0 36.34 36.34"><defs><style>.cls-1{fill:#e1b218;}</style></defs><g id="Capa_2" data-name="Capa 2"><g id="Capa_1-2" data-name="Capa 1"><path class="cls-1" d="M18.17,0A18.17,18.17,0,1,0,36.34,18.17,18.18,18.18,0,0,0,18.17,0Zm0,34.46A16.29,16.29,0,1,1,34.46,18.17,16.29,16.29,0,0,1,18.17,34.46Z"/><path class="cls-1" d="M24,17.23h-4.9V12.32a.95.95,0,1,0-1.89,0v4.91H12.32a.95.95,0,1,0,0,1.89h4.91V24a.95.95,0,1,0,1.89,0v-4.9H24a.95.95,0,1,0,0-1.89Z"/></g></g></svg>