<svg xmlns="http://www.w3.org/2000/svg" viewBox="0 0 60.74 48.2"><defs><style>.cls-1{fill:#e1b218}</style></defs><g id="Capa_2" data-name="Capa 2"><g id="Capa_1-2" data-name="Capa 1"><path d="M3.72,43.89C1.24,41,0,36.83,0,31.35A37.94,37.94,0,0,1,4.41,13.91,35.59,35.59,0,0,1,17,0l4.9,6.66a25.59,25.59,0,0,0-7.15,7.84,15.49,15.49,0,0,0-1.66,9.4,12,12,0,0,1,8.81,3.53,11.74,11.74,0,0,1,3.53,8.62,11.72,11.72,0,0,1-3.53,8.62,12,12,0,0,1-8.81,3.53A11.91,11.91,0,0,1,3.72,43.89Zm35.27,0c-2.48-2.87-3.72-7.06-3.72-12.54a38.05,38.05,0,0,1,4.4-17.44A35.61,35.61,0,0,1,52.31,0l4.9,6.66a25.46,25.46,0,0,0-7.15,7.84,15.5,15.5,0,0,0-1.67,9.4,12,12,0,0,1,8.82,3.53,11.74,11.74,0,0,1,3.53,8.62,11.72,11.72,0,0,1-3.53,8.62,12,12,0,0,1-8.82,3.53A11.89,11.89,0,0,1,39,43.89Z" class="cls-1"/></g></g></svg>