<svg xmlns="http://www.w3.org/2000/svg" xmlns:xlink="http://www.w3.org/1999/xlink" viewBox="0 0 102.25 98.72"><defs><style>.cls-1{fill:url(#Nueva_muestra_de_degradado_1)}.cls-2{fill:url(#Nueva_muestra_de_degradado_1-2)}</style><linearGradient id="Nueva_muestra_de_degradado_1" x1="2.2" x2="81.31" y1="58.28" y2="43.9" gradientUnits="userSpaceOnUse"><stop offset="0" stop-color="#f3d536"/><stop offset=".45" stop-color="#e1b218"/><stop offset=".75" stop-color="#fbe546"/><stop offset="1" stop-color="#e1b218"/></linearGradient><linearGradient id="Nueva_muestra_de_degradado_1-2" x1="1.07" x2="80.18" y1="52.06" y2="37.68" xlink:href="#Nueva_muestra_de_degradado_1"/></defs><g id="Capa_2" data-name="Capa 2"><g id="Capa_1-2" data-name="Capa 1"><path d="M77.78,7.69A49.67,49.67,0,0,0,51.3,0c-10,0-17.82,1.32-30.14,8.84S0,33.06,0,47.69,6,72,6,72,2.73,81.07,6.7,87.7c6,10.09,18.1,3.89,18.1,3.89,9.5,5.12,20.83,9.25,39.18,6s38.27-22,38.27-47.2S85.39,12.4,77.78,7.69Zm8,71.58C77,87,66.58,92.41,53.25,92.41c-14.5,0-22.31-4.89-22.31-4.89,13.2-11.35,17.58-27.43,19.57-35.78,1-4.41,2.42-16.2,2.85-22.3a68.35,68.35,0,0,0-.29-11.63,3.55,3.55,0,0,0-3.8-3c-2.48,0-3.23,3.05-3.23,3.72s1.65,2.31,1.65,2.31c.65,2.44.42,4.44-1.19,20.13s-5.15,25-9.18,33.17S24.67,89.07,18.91,88.82s-8-5.21-7.32-13.77S18.23,56.89,25,56.89s6.27,7.13,6,9.55.12,3.47,1.18,3.47,1.17-.43,2.17-1.92,4.81-13.46-6.7-15.25C16.49,51,8.43,66.13,8.43,66.13,2.11,55.34.12,31.91,14.88,16.9S43.52-.21,59.76,2.15c23.57,3.42,39.18,24.92,39.18,45C98.94,56.33,97.94,68.61,85.8,79.27Z" class="cls-1"/><path d="M75.39,34.82c2.35-.25,4.15-.5,4.89-3.84s1.49-6.82,0-9.12c-.8-1.24-2.69-1.84-4.65-1.86a18.05,18.05,0,0,0-4.67.54,15.76,15.76,0,0,0-8.47,5.91,16.16,16.16,0,0,0-3.16,9.05c0,2.67,1.24,5.33,5.7,6.76s9.4,2.43,9,6c-.43,4.4-3.28,7.22-5.23,7.53-2.48.4-7-.62-6.67-7,.07-1.24,1.55-.87,1.55-1.7s-3.22-1-6.12.5S54.84,51.21,54.84,53s2.44,6.2,8.77,6.2c8.92,0,17.19-6,17.19-12.16,0-8.59-14.92-2.6-14.92-14.09,0-2.31,2.16-8.44,6-10.5,1.16-.62,1.86-.86,3.06.91s.37,8-2.09,11.06C72.84,34.45,73,35.07,75.39,34.82Z" class="cls-2"/></g></g></svg>