<svg xmlns="http://www.w3.org/2000/svg" viewBox="0 0 185.81 60.55"><defs><style>.cls-1{fill:#003869}</style></defs><g id="Capa_2" data-name="Capa 2"><g id="Capa_1-2" data-name="Capa 1"><path d="M39.66,27.07a.2.2,0,0,1,.27.08.45.45,0,0,1,.06.33.35.35,0,0,1-.22.29l-1,.42q-3,1.27-6.26,2.84t-7.12,3.72A7.49,7.49,0,0,0,24,36a9.83,9.83,0,0,0-1.09,1.34h0v0q-3.24,5.27-6.65,10a93.82,93.82,0,0,1-6.53,8.09,25.5,25.5,0,0,1-5.4,4.74,2.38,2.38,0,0,1-2.08.21,1.85,1.85,0,0,1-1.14-1.21s0,0,0,0v0L1,59a8.11,8.11,0,0,1,.31-3.41,16.32,16.32,0,0,1,2.53-5,36,36,0,0,1,5.93-6.3,77.29,77.29,0,0,1,10.5-7.45h0a7.92,7.92,0,0,0,1.3-1.09,6,6,0,0,0,.89-1.1A115.86,115.86,0,0,0,29,21.31a42.44,42.44,0,0,0,3.12-11.4q.33-4.22-1-6.2a4.52,4.52,0,0,0-3.67-2.17,12.61,12.61,0,0,0-5.43,1,35.57,35.57,0,0,0-6.23,3.21,54.1,54.1,0,0,0-6.11,4.55,45.42,45.42,0,0,0-5,5,18,18,0,0,0-3,4.52,2,2,0,0,1-.64.76.65.65,0,0,1-.58.07.9.9,0,0,1-.41-.3A.52.52,0,0,1,0,20a13.86,13.86,0,0,1,2.88-4.86A46.07,46.07,0,0,1,8.62,9.45,56.75,56.75,0,0,1,15.9,4.27,34.55,34.55,0,0,1,23.38.83,11.62,11.62,0,0,1,29.73.4a5.59,5.59,0,0,1,3.88,3.85c.77,2.11.8,5.26.09,9.43a40.51,40.51,0,0,1-2.9,8.84,114.45,114.45,0,0,1-5.48,10.77h0c-.14.27-.18.45-.12.56s.18.11.38,0h0q3.29-1.8,6.37-3.33T39.66,27.07ZM20.45,38.3c.17-.31.19-.47.05-.49A.94.94,0,0,0,20,38a80.19,80.19,0,0,0-8.88,6.38,33,33,0,0,0-6.38,6.85,11.72,11.72,0,0,0-2.23,7A1.07,1.07,0,0,0,2.8,59c.21.19.56.19,1.07,0q2.94-1.56,7.45-7.24A128,128,0,0,0,20.45,38.3Z" class="cls-1"/><path d="M44.94,23.6a1.21,1.21,0,0,1,.6-.3.75.75,0,0,1,.7.14c.2.15.27.5.21,1A40.51,40.51,0,0,1,45,28.59Q44.06,31,43.16,33c-.21.43-.41.67-.61.69a.43.43,0,0,1-.47-.27.86.86,0,0,1-.06-.67c.11-.42.22-.83.33-1.22a38.73,38.73,0,0,1,1.63-5h0c.11-.32,0-.34-.35-.05l-.21.21c-.84.79-1.82,1.64-2.93,2.55a7.38,7.38,0,0,1-2.9,1.62c-1,0-1.51-.43-1.59-1.19a5.6,5.6,0,0,1,.51-2.62,17.39,17.39,0,0,1,1.29-2.56,1.13,1.13,0,0,1,.84-.41,1,1,0,0,1,.89.26c.2.22.13.62-.22,1.21h0c-.53.78-1,1.53-1.42,2.26a5.44,5.44,0,0,0-.74,1.77c0,.62.19.84.7.66a7.26,7.26,0,0,0,1.88-1.2q1.13-.91,2.1-1.86c.65-.64,1.1-1.09,1.35-1.36a11.41,11.41,0,0,0,1-1.28Z" class="cls-1"/><path d="M60.83,27.1a.39.39,0,0,1,.14-.05.1.1,0,0,1,.08,0,.18.18,0,0,1,.05.07.11.11,0,0,1,0,.08.31.31,0,0,1,0,.1c-.81.63-1.45,1.11-1.93,1.46L58,29.63l-1,.66-.63.38A7.15,7.15,0,0,1,53.15,32a1.3,1.3,0,0,1-1.4-.82,4.1,4.1,0,0,1-.12-2.08,11.52,11.52,0,0,1,.67-2.46c.06-.16.06-.26,0-.3s-.17,0-.37.13a9.88,9.88,0,0,0-1.58,1.27L50,28c-.95.86-1.87,1.65-2.77,2.36a11.21,11.21,0,0,1-2.35,1.53c-.66.29-1.13.23-1.39-.19a2.25,2.25,0,0,1,.25-2.14,10.73,10.73,0,0,1,2-2.56,14.92,14.92,0,0,1,2.62-2.14,4.41,4.41,0,0,1,2.24-.83c.59,0,.86.45.79,1.32h0a.33.33,0,0,0,0,.14.16.16,0,0,0,.07.09s.08,0,.15-.06A2.27,2.27,0,0,1,53,24.86c.33.06.47.38.42.93a15.29,15.29,0,0,1-.36,1.95c-.17.68-.29,1.32-.38,1.91A1.76,1.76,0,0,0,52.9,31a1.37,1.37,0,0,0,1.45.16,10.42,10.42,0,0,0,2.21-1c.8-.48,1.55-1,2.26-1.48l1.63-1.21ZM44.71,31c.12.17.48,0,1.09-.38A26.8,26.8,0,0,0,47.93,29c.8-.69,1.56-1.35,2.27-2a.81.81,0,0,0,.19-.24.5.5,0,0,0,0-.34c-.2-.35-.6-.41-1.19-.16a7.89,7.89,0,0,0-1.84,1.12,9.29,9.29,0,0,0-1.48,1.44,10,10,0,0,0-1,1.56C44.71,30.7,44.65,30.92,44.71,31Z" class="cls-1"/><path d="M69.9,27.06a.15.15,0,0,1,.13.11c0,.06,0,.13-.09.2a22.92,22.92,0,0,1-2.22,1.72,15.48,15.48,0,0,1-2.65,1.44,6.7,6.7,0,0,1-2.76.55c-.62,0-1-.2-1.15-.51a1.47,1.47,0,0,1,0-1.12,10.41,10.41,0,0,1,.5-1.34,9.53,9.53,0,0,0,.37-.95,1,1,0,0,0,.06-.65c-.24-.25-.57-.14-1,.34a19.36,19.36,0,0,0-1.39,1.87A19.47,19.47,0,0,1,58,31c-.55.65-1.05.91-1.49.79a.46.46,0,0,1-.28-.53,4.35,4.35,0,0,1,.3-.95l.6-1.43a19.8,19.8,0,0,1,1.08-2.34.48.48,0,0,1,.37-.17.81.81,0,0,1,.46.08.41.41,0,0,1,.22.39v0a9.79,9.79,0,0,0-.47,1.45c-.09.31-.18.62-.29.93h0a.64.64,0,0,1,0,.09s0,0,0,.07a0,0,0,0,0,0,.05s0,0,0,0l.06-.06.12-.16h0c.36-.53.76-1.08,1.19-1.65a15.33,15.33,0,0,1,1.24-1.47,1.83,1.83,0,0,1,.79-.45,1,1,0,0,1,1,.17v0h0a.64.64,0,0,1,.1.13,1,1,0,0,1,.13.22l0,.1a1.6,1.6,0,0,1,0,1,8.11,8.11,0,0,1-.4,1,5.55,5.55,0,0,0-.39,1.06.84.84,0,0,0,.19.82c.49.37,1.41.29,2.77-.24a15.25,15.25,0,0,0,4.34-2.77C69.75,27.08,69.83,27,69.9,27.06Z" class="cls-1"/><path d="M75.82,14.45a28.4,28.4,0,0,1,4.44-4.62,41.51,41.51,0,0,1,5.88-4.15,33.69,33.69,0,0,1,6.39-2.93,16.66,16.66,0,0,1,6-.95,7.22,7.22,0,0,1,4.68,1.79,8.49,8.49,0,0,1,2.44,5.32.24.24,0,0,1-.12.18.55.55,0,0,1-.32.09.5.5,0,0,1-.36-.13,1,1,0,0,1-.27-.48,6.87,6.87,0,0,0-1.16-2.87A4.59,4.59,0,0,0,101.15,4,12.87,12.87,0,0,0,95,4.14a30.16,30.16,0,0,0-6.88,2.7,43.11,43.11,0,0,0-6.45,4.21,33.07,33.07,0,0,0-4.94,4.7Q75,18,75.55,19.52a5.45,5.45,0,0,0,2.61,2.66,42.57,42.57,0,0,0,4.69,2.18c1.36.55,2.7,1.15,4,1.79a16.12,16.12,0,0,1,3.41,2.19,6.3,6.3,0,0,1,2,2.88.61.61,0,0,0,.51.37,1.11,1.11,0,0,0,.66-.07h0a121,121,0,0,1,11.26-4.47.19.19,0,0,1,.22.05.29.29,0,0,1,0,.22.25.25,0,0,1-.15.17q-5.4,2-11.21,4.86A2.33,2.33,0,0,0,92.31,34h0a14.2,14.2,0,0,1-2.51,4,68.35,68.35,0,0,1-9.23,9.62,19.53,19.53,0,0,1-3.88,2.56,13,13,0,0,1-3.4,1.52c-1,.13-2.12-.1-2.36-.71-.41-1-.29-1.81.49-3.18a22.39,22.39,0,0,1,5.22-6c1.86-1.44,3.48-2.82,11.19-7.34.32-.16,1.43-.85,2.65-1.65a1.1,1.1,0,0,0,.37-.52,2.42,2.42,0,0,0,.15-.56,4.7,4.7,0,0,0-1.61-2.3,14.91,14.91,0,0,0-3-1.82q-1.74-.81-3.66-1.59c-1.5-.59-2.93-1.21-4.27-1.88a11.43,11.43,0,0,1-3.26-2.29A4.21,4.21,0,0,1,74,18.71,7.8,7.8,0,0,1,75.82,14.45Zm2.1,33.64c1.24-.89,3.85-3.24,5.18-4.47s7-7.7,7.66-9.1c.1-.25.09-.41-.06-.47a.78.78,0,0,0-.62.12c-2.92,1.55-11.35,6.89-13.15,8.66a29.85,29.85,0,0,0-4.81,5.63c-.66.91-.52,2,.67,2.11C73.74,50.63,75.56,49.78,77.92,48.09Z" class="cls-1"/><path d="M116.79,27.1a.39.39,0,0,1,.14-.05.11.11,0,0,1,.08,0,.18.18,0,0,1,0,.07.11.11,0,0,1,0,.08.31.31,0,0,1,0,.1c-.81.63-1.46,1.11-1.93,1.46l-1.22.84-1,.66-.63.38A7.13,7.13,0,0,1,109.1,32a1.29,1.29,0,0,1-1.39-.82,4.1,4.1,0,0,1-.12-2.08,12.11,12.11,0,0,1,.66-2.46q.09-.24,0-.3s-.16,0-.36.13a9.88,9.88,0,0,0-1.58,1.27L106,28c-1,.86-1.87,1.65-2.77,2.36a11.47,11.47,0,0,1-2.35,1.53c-.67.29-1.13.23-1.4-.19a2.27,2.27,0,0,1,.25-2.14,11.06,11.06,0,0,1,2-2.56,14.56,14.56,0,0,1,2.62-2.14,4.38,4.38,0,0,1,2.24-.83c.59,0,.86.45.79,1.32h0a.33.33,0,0,0,0,.14.13.13,0,0,0,.07.09s.08,0,.15-.06a2.27,2.27,0,0,1,1.41-.68c.33.06.47.38.41.93a13.55,13.55,0,0,1-.35,1.95c-.17.68-.29,1.32-.38,1.91a1.76,1.76,0,0,0,.19,1.3c.3.31.78.36,1.45.16a10.42,10.42,0,0,0,2.21-1c.8-.48,1.55-1,2.26-1.48l1.63-1.21ZM100.67,31c.12.17.48,0,1.09-.38A25.14,25.14,0,0,0,103.88,29c.81-.69,1.57-1.35,2.28-2a.66.66,0,0,0,.18-.24.45.45,0,0,0,0-.34c-.2-.35-.6-.41-1.19-.16a7.69,7.69,0,0,0-1.84,1.12,9.35,9.35,0,0,0-2.52,3C100.67,30.7,100.61,30.92,100.67,31Z" class="cls-1"/><path d="M125.86,27.06a.15.15,0,0,1,.13.11c0,.06,0,.13-.09.2a22.92,22.92,0,0,1-2.22,1.72A15.48,15.48,0,0,1,121,30.53a6.7,6.7,0,0,1-2.76.55c-.62,0-1-.2-1.15-.51a1.52,1.52,0,0,1,0-1.12,10.48,10.48,0,0,1,.51-1.34,9.53,9.53,0,0,0,.37-.95,1,1,0,0,0,0-.65c-.23-.25-.56-.14-1,.34a17.82,17.82,0,0,0-1.39,1.87A19.47,19.47,0,0,1,114,31c-.55.65-1,.91-1.49.79a.45.45,0,0,1-.28-.53,4.83,4.83,0,0,1,.29-.95c.24-.54.44-1,.6-1.43a21.72,21.72,0,0,1,1.09-2.34.48.48,0,0,1,.36-.17.83.83,0,0,1,.47.08.41.41,0,0,1,.22.39v0a9.79,9.79,0,0,0-.47,1.45c-.09.31-.19.62-.29.93h0a.51.51,0,0,0,0,.09.64.64,0,0,0,0,.07v.05h0l.07-.06.12-.16h0c.36-.53.76-1.08,1.19-1.65a15.33,15.33,0,0,1,1.24-1.47,1.83,1.83,0,0,1,.79-.45,1,1,0,0,1,1,.17v0h0a.64.64,0,0,1,.1.13,1.59,1.59,0,0,1,.13.22l0,.1a1.6,1.6,0,0,1,0,1,8.11,8.11,0,0,1-.4,1,5,5,0,0,0-.39,1.06.84.84,0,0,0,.19.82c.49.37,1.41.29,2.77-.24a15.39,15.39,0,0,0,4.34-2.77C125.71,27.08,125.79,27,125.86,27.06Z" class="cls-1"/><path d="M140,27.05a.28.28,0,0,1,.27.13c.06.08,0,.2-.13.36q-1.74,1.76-3.45,3.79t-3.36,4.08c-1.31,1.63-2.54,3.11-3.68,4.42a19.74,19.74,0,0,1-3,3c-.89.65-1.61.8-2.16.44s-.67-1.52-.34-3.2a40.35,40.35,0,0,1,1.89-6.2c.93-2.46,2-5.1,3.28-7.9s2.53-5.56,3.83-8.27,2.47-5.13,3.53-7.27c1-2,1.72-3.53,2.27-4.68a.08.08,0,0,0,0,0l0,0a.81.81,0,0,0,.08-.28,2.49,2.49,0,0,0-.38.51c-.22.31-.45.67-.7,1.08s-.48.79-.67,1.14h0c-.37.67-.76,1.4-1.18,2.18q-1.91,3.62-4.37,8T126.5,26.7a.3.3,0,0,0,0,.1,1,1,0,0,0,0,.12h0a.59.59,0,0,1-.11.48.22.22,0,0,1-.18.08v0l-.13,0a.25.25,0,0,0-.16.13h0a42.62,42.62,0,0,1-3,4,7.25,7.25,0,0,1-2.44,2c-.79.28-1.22.16-1.28-.36a4.16,4.16,0,0,1,.55-2.14,13.94,13.94,0,0,1,1.73-2.7,9.19,9.19,0,0,1,2.26-2.07,2,2,0,0,1,2.11-.25h0a.43.43,0,0,0,.29,0,.45.45,0,0,0,.17-.13q2.64-4.1,5.3-8.78t4.84-8.72c1.44-2.64,2.57-4.66,3.4-6.08a.67.67,0,0,1,.48-.28.74.74,0,0,1,.52.14c.25.29.14,1.17-.34,2.63s-1.2,3.31-2.15,5.52-2,4.6-3.22,7.15-2.38,5.07-3.55,7.54q-3.66,7.62-5,11a29.26,29.26,0,0,0-1.31,4.09c-.25,1.15-.18,1.82.22,2s1.28-.34,2.38-1.48S130.25,38.11,132,36q3.14-3.84,7.7-8.8h0v0A.43.43,0,0,1,140,27.05Zm-14.86.56c.09-.14,0-.19-.22-.15a6.37,6.37,0,0,0-2.24,1.43,15.14,15.14,0,0,0-2,2.21,6.62,6.62,0,0,0-1,1.79c-.12.42.1.47.66.14A20.53,20.53,0,0,0,125.14,27.61Z" class="cls-1"/><path d="M147.4,27.24l-.29.13a4.1,4.1,0,0,1-1.27.44,1.78,1.78,0,0,1-1.29-.42,9.89,9.89,0,0,1-1.83-1.95,1.7,1.7,0,0,0-.24-.22.7.7,0,0,0-.41-.18.28.28,0,0,0-.24.12.8.8,0,0,0-.11.25.56.56,0,0,0,0,.22l0,0a6.7,6.7,0,0,1-1,2.92,7.53,7.53,0,0,1-2.39,2.55c-1.18.68-2,.84-2.34.49a1.86,1.86,0,0,1-.26-1.83,9,9,0,0,1,1.09-2.61,5.65,5.65,0,0,1,1.71-1.9,1.09,1.09,0,0,1,1.61.3v0h0c0,.07.08.09.1.08s0-.06,0-.14v0h0c0-.13-.08-.25-.11-.37a.81.81,0,0,1,.11-.68,1.68,1.68,0,0,1,.52-.37,1.74,1.74,0,0,1,1.23,0,3.05,3.05,0,0,1,1.32,1.05,7.09,7.09,0,0,1,.66.9,3.72,3.72,0,0,0,1.19,1.26,2.46,2.46,0,0,0,2.09-.19c.11,0,.18-.06.23,0a.08.08,0,0,1,.06.08S147.46,27.21,147.4,27.24Zm-7.14,0c.06-.18.05-.31,0-.38a1.27,1.27,0,0,0-1.4.35,5.65,5.65,0,0,0-1.37,1.69,2.68,2.68,0,0,0-.39,1.81.36.36,0,0,0,.12.16.38.38,0,0,0,.22.06.78.78,0,0,0,.27-.09h.05a5,5,0,0,0,1.47-1.45A7.19,7.19,0,0,0,140.26,27.24Z" class="cls-1"/><path d="M158.59,21.59q-1.72,1.74-4.61,5-2.07,2.36-4.25,4.75c-1.46,1.59-2.83,3-4.1,4.15a10.68,10.68,0,0,1-3.09,2.2c-.79.3-1.21-.06-1.26-1.07a18.84,18.84,0,0,1,1.4-5.68v0A30.55,30.55,0,0,1,144,27.83q.78-1.68,1.56-3.18c.5-1,1-1.95,1.5-2.81l0,0a.81.81,0,0,0,.11-.21,0,0,0,0,0,0,0,0,0,0,0,0,0,0l0,0h0a1.13,1.13,0,0,1,.62-.38,1,1,0,0,1,.53,0,.59.59,0,0,1,.36.33,1,1,0,0,1,0,.6c-.79,1.87-1.67,3.7-2.62,5.49q-1,1.85-1.83,3.69c-1.26,2.75-1.9,4.48-1.91,5.21s.42.74,1.28,0A31.58,31.58,0,0,0,147,33.19c1.37-1.51,2.82-3.16,4.33-4.92s2.77-3.21,4-4.58a26.72,26.72,0,0,1,2.91-2.88.36.36,0,0,1,.36,0,.41.41,0,0,1,.22.3A.59.59,0,0,1,158.59,21.59Z" class="cls-1"/><path d="M169.4,27.1a.34.34,0,0,1,.14-.05.11.11,0,0,1,.08,0,.18.18,0,0,1,0,.07l0,.08s0,.06,0,.1c-.81.63-1.46,1.11-1.94,1.46s-.88.62-1.21.84l-1,.66c-.2.11-.41.24-.63.38a7.22,7.22,0,0,1-3.18,1.3,1.31,1.31,0,0,1-1.4-.82,4,4,0,0,1-.11-2.08,12.11,12.11,0,0,1,.66-2.46q.09-.24,0-.3s-.16,0-.36.13A9.46,9.46,0,0,0,159,27.71l-.34.31c-1,.86-1.87,1.65-2.77,2.36a11.47,11.47,0,0,1-2.35,1.53c-.67.29-1.13.23-1.4-.19a2.27,2.27,0,0,1,.25-2.14,11,11,0,0,1,2-2.56,15.29,15.29,0,0,1,2.62-2.14,4.44,4.44,0,0,1,2.24-.83c.6,0,.86.45.8,1.32h0a.33.33,0,0,0,0,.14.13.13,0,0,0,.07.09s.08,0,.15-.06a2.25,2.25,0,0,1,1.41-.68c.33.06.47.38.41.93a12.43,12.43,0,0,1-.36,1.95c-.16.68-.29,1.32-.37,1.91a1.82,1.82,0,0,0,.18,1.3,1.39,1.39,0,0,0,1.46.16,10.37,10.37,0,0,0,2.2-1c.8-.48,1.56-1,2.27-1.48L169,27.39ZM153.28,31c.12.17.48,0,1.09-.38A25.14,25.14,0,0,0,156.49,29c.81-.69,1.57-1.35,2.28-2a.66.66,0,0,0,.18-.24.45.45,0,0,0,0-.34c-.21-.35-.6-.41-1.19-.16A7.51,7.51,0,0,0,156,27.34a8.88,8.88,0,0,0-1.48,1.44,9.29,9.29,0,0,0-1,1.56C153.27,30.7,153.22,30.92,153.28,31Z" class="cls-1"/><path d="M185.29,27.13a.38.38,0,0,1,.28-.09.24.24,0,0,1,.22.14q.08.12-.09.33c-1.75,2.06-3.44,4-5.09,5.87s-3.34,3.66-5.09,5.41q-7.26,7.22-10.79,8.44t-3.48-2.87c0-2.74,1.2-7,3.53-12.9q3.6-9.18,6.89-16.4T179.14.33a.63.63,0,0,1,.54-.33.54.54,0,0,1,.46.32.84.84,0,0,1-.08.77,172,172,0,0,0-7.71,15.66q-3,7.18-7.18,18.28c-.1.27-.19.53-.29.79s-.26.69-.46,1.28-.41,1.27-.63,2-.4,1.55-.57,2.35a16.6,16.6,0,0,0-.33,2.22,4.45,4.45,0,0,0,.13,1.67.8.8,0,0,0,.82.63,6.11,6.11,0,0,0,3-1,29.2,29.2,0,0,0,3.76-2.72c1.35-1.13,2.72-2.37,4.13-3.75s2.77-2.76,4.1-4.18,2.55-2.75,3.67-4Z" class="cls-1"/></g></g></svg>