<svg xmlns="http://www.w3.org/2000/svg" xmlns:xlink="http://www.w3.org/1999/xlink" viewBox="0 0 154.84 50.46"><defs><style>.cls-1{fill:url(#Nueva_muestra_de_degradado_1);}.cls-2{fill:url(#Nueva_muestra_de_degradado_1-2);}.cls-3{fill:url(#Nueva_muestra_de_degradado_1-3);}.cls-4{fill:url(#Nueva_muestra_de_degradado_1-4);}.cls-5{fill:url(#Nueva_muestra_de_degradado_1-5);}.cls-6{fill:url(#Nueva_muestra_de_degradado_1-8);}.cls-7{fill:url(#Nueva_muestra_de_degradado_1-9);}.cls-8{fill:url(#Nueva_muestra_de_degradado_1-10);}.cls-9{fill:url(#Nueva_muestra_de_degradado_1-12);}</style><linearGradient id="Nueva_muestra_de_degradado_1" x1="-11.87" y1="25.28" x2="168.96" y2="25.28" gradientUnits="userSpaceOnUse"><stop offset="0" stop-color="#f3d536"/><stop offset="0.45" stop-color="#e1b218"/><stop offset="0.75" stop-color="#fbe546"/><stop offset="1" stop-color="#e1b218"/></linearGradient><linearGradient id="Nueva_muestra_de_degradado_1-2" x1="-11.87" y1="23.75" x2="168.96" y2="23.75" xlink:href="#Nueva_muestra_de_degradado_1"/><linearGradient id="Nueva_muestra_de_degradado_1-3" x1="-11.87" y1="23.39" x2="168.96" y2="23.39" xlink:href="#Nueva_muestra_de_degradado_1"/><linearGradient id="Nueva_muestra_de_degradado_1-4" x1="-11.87" y1="23.89" x2="168.96" y2="23.89" xlink:href="#Nueva_muestra_de_degradado_1"/><linearGradient id="Nueva_muestra_de_degradado_1-5" x1="-11.87" y1="22.3" x2="168.96" y2="22.3" xlink:href="#Nueva_muestra_de_degradado_1"/><linearGradient id="Nueva_muestra_de_degradado_1-8" x1="-11.87" y1="19" x2="168.96" y2="19" xlink:href="#Nueva_muestra_de_degradado_1"/><linearGradient id="Nueva_muestra_de_degradado_1-9" x1="-11.87" y1="23.23" x2="168.96" y2="23.23" xlink:href="#Nueva_muestra_de_degradado_1"/><linearGradient id="Nueva_muestra_de_degradado_1-10" x1="-11.87" y1="24.41" x2="168.96" y2="24.41" xlink:href="#Nueva_muestra_de_degradado_1"/><linearGradient id="Nueva_muestra_de_degradado_1-12" x1="-11.87" y1="19.8" x2="168.96" y2="19.8" xlink:href="#Nueva_muestra_de_degradado_1"/></defs><g id="Capa_2" data-name="Capa 2"><g id="Capa_1-2" data-name="Capa 1"><path class="cls-1" d="M33.05,22.56a.18.18,0,0,1,.23.06.43.43,0,0,1,0,.28.31.31,0,0,1-.19.24l-.79.36q-2.46,1-5.22,2.36c-1.83.86-3.81,1.9-5.93,3.1A6,6,0,0,0,20,30a7.66,7.66,0,0,0-.9,1.13h0q-2.7,4.4-5.55,8.31a78,78,0,0,1-5.44,6.74,21.1,21.1,0,0,1-4.5,3.95,2,2,0,0,1-1.73.17,1.52,1.52,0,0,1-.95-1s0,0,0,0v0a.29.29,0,0,0,0-.09,6.67,6.67,0,0,1,.26-2.85,13.92,13.92,0,0,1,2.1-4.12A30.27,30.27,0,0,1,8.17,37a64,64,0,0,1,8.76-6.21h0A6.34,6.34,0,0,0,18,29.82a5.56,5.56,0,0,0,.74-.91,96.21,96.21,0,0,0,5.41-11.16,35.34,35.34,0,0,0,2.61-9.49q.27-3.52-.8-5.17a3.82,3.82,0,0,0-3.07-1.81,10.5,10.5,0,0,0-4.52.82,29.22,29.22,0,0,0-5.19,2.68A43.64,43.64,0,0,0,8.12,8.57a37.31,37.31,0,0,0-4.18,4.15,15.11,15.11,0,0,0-2.48,3.77,1.64,1.64,0,0,1-.53.64.62.62,0,0,1-.49.06.82.82,0,0,1-.34-.26.42.42,0,0,1-.1-.29,11.47,11.47,0,0,1,2.4-4.05A38.21,38.21,0,0,1,7.18,7.88a46.35,46.35,0,0,1,6.07-4.32A28.82,28.82,0,0,1,19.48.69,9.66,9.66,0,0,1,24.77.33,4.67,4.67,0,0,1,28,3.55q1,2.63.07,7.85a33.63,33.63,0,0,1-2.42,7.37,92.84,92.84,0,0,1-4.56,9h0c-.12.22-.15.38-.1.47s.16.09.32,0h0q2.73-1.5,5.31-2.78T33.05,22.56ZM17,31.91c.14-.25.16-.38.05-.4a.77.77,0,0,0-.47.16A66.77,66.77,0,0,0,9.22,37a27.89,27.89,0,0,0-5.31,5.71,9.74,9.74,0,0,0-1.86,5.83.87.87,0,0,0,.28.6c.18.16.47.16.9,0q2.45-1.29,6.2-6A104.47,104.47,0,0,0,17,31.91Z"/><path class="cls-2" d="M37.45,19.66a1.17,1.17,0,0,1,.5-.25.66.66,0,0,1,.58.12q.26.2.18.87a33.6,33.6,0,0,1-1.2,3.42c-.52,1.32-1,2.55-1.55,3.7-.17.37-.34.56-.5.58a.36.36,0,0,1-.39-.22.75.75,0,0,1-.06-.57c.1-.35.19-.68.28-1a31,31,0,0,1,1.36-4.15h0c.1-.27,0-.28-.3,0l-.17.18c-.7.65-1.51,1.36-2.44,2.12a6.23,6.23,0,0,1-2.41,1.35c-.82,0-1.26-.36-1.33-1a4.7,4.7,0,0,1,.42-2.19,15,15,0,0,1,1.08-2.13,1,1,0,0,1,.7-.34.8.8,0,0,1,.74.22c.17.18.11.52-.18,1v0h0c-.44.65-.83,1.27-1.18,1.87a4.73,4.73,0,0,0-.62,1.48c0,.52.16.7.58.55a5.82,5.82,0,0,0,1.57-1c.62-.51,1.21-1,1.75-1.56s.92-.91,1.12-1.13a9.24,9.24,0,0,0,.86-1.07Z"/><path class="cls-3" d="M50.69,22.58l.12,0a.09.09,0,0,1,.07,0l0,.05a.19.19,0,0,1,0,.07.22.22,0,0,1,0,.09c-.68.52-1.21.92-1.61,1.21s-.74.52-1,.7l-.87.55-.52.32a6.12,6.12,0,0,1-2.65,1.08A1.1,1.1,0,0,1,43.12,26,3.46,3.46,0,0,1,43,24.23a10,10,0,0,1,.55-2.05c.05-.14.06-.22,0-.25s-.14,0-.31.1A9.29,9.29,0,0,0,42,23.09l-.28.26c-.79.71-1.56,1.37-2.3,2a9.73,9.73,0,0,1-2,1.27q-.84.38-1.17-.15a1.92,1.92,0,0,1,.21-1.79,9.5,9.5,0,0,1,1.63-2.14,12.51,12.51,0,0,1,2.19-1.77,3.66,3.66,0,0,1,1.87-.7c.49,0,.71.38.65,1.1h0a.24.24,0,0,0,0,.12.08.08,0,0,0,0,.07s.07,0,.13,0a1.93,1.93,0,0,1,1.17-.58c.28.06.39.32.35.78a12.8,12.8,0,0,1-.3,1.63c-.14.57-.24,1.1-.31,1.59a1.47,1.47,0,0,0,.15,1.08,1.14,1.14,0,0,0,1.21.13,8.4,8.4,0,0,0,1.84-.85c.67-.4,1.3-.81,1.89-1.24s1-.76,1.36-1ZM37.26,25.84c.1.14.4,0,.91-.32a22.2,22.2,0,0,0,1.77-1.38c.67-.58,1.3-1.13,1.9-1.67a1,1,0,0,0,.15-.21A.45.45,0,0,0,42,22c-.17-.29-.5-.34-1-.13a6.15,6.15,0,0,0-1.53.94A7.42,7.42,0,0,0,38.26,24a8.41,8.41,0,0,0-.87,1.3C37.26,25.58,37.21,25.76,37.26,25.84Z"/><path class="cls-4" d="M58.25,22.55a.13.13,0,0,1,.11.09c0,.05,0,.11-.07.17a20.46,20.46,0,0,1-1.86,1.43,11.82,11.82,0,0,1-2.21,1.2,5.71,5.71,0,0,1-2.29.46q-.78,0-1-.42a1.25,1.25,0,0,1,0-.94,9.06,9.06,0,0,1,.42-1.12,8.47,8.47,0,0,0,.31-.79.81.81,0,0,0,0-.54c-.19-.21-.47-.12-.82.28a15.82,15.82,0,0,0-1.16,1.56,16.53,16.53,0,0,1-1.39,1.87c-.46.54-.87.76-1.24.66a.39.39,0,0,1-.23-.45,3.47,3.47,0,0,1,.24-.78c.2-.46.36-.86.5-1.2a18.34,18.34,0,0,1,.9-2,.43.43,0,0,1,.31-.14.74.74,0,0,1,.39.07.34.34,0,0,1,.18.33h0A9,9,0,0,0,49,23.56q-.11.39-.24.78h0l0,.07s0,0,0,.06,0,0,0,0h0l.06,0a.76.76,0,0,1,.1-.13h0v0c.3-.43.63-.89,1-1.37a12.37,12.37,0,0,1,1-1.22,1.51,1.51,0,0,1,.66-.38.83.83,0,0,1,.79.14v0h0a.44.44,0,0,1,.08.11.78.78,0,0,1,.11.18l0,.08a1.39,1.39,0,0,1,0,.83,7.49,7.49,0,0,1-.32.86,3.87,3.87,0,0,0-.33.88.69.69,0,0,0,.15.68c.41.31,1.18.24,2.32-.2a12.47,12.47,0,0,0,3.61-2.3A.24.24,0,0,1,58.25,22.55Z"/><path class="cls-5" d="M63.18,12a23.61,23.61,0,0,1,3.7-3.85,34.91,34.91,0,0,1,4.9-3.45,27.83,27.83,0,0,1,5.33-2.45,14,14,0,0,1,5-.79A6.07,6.07,0,0,1,86,3a7.11,7.11,0,0,1,2,4.44s0,.09-.1.14a.46.46,0,0,1-.27.08.38.38,0,0,1-.29-.11.81.81,0,0,1-.23-.39,5.84,5.84,0,0,0-1-2.4,3.88,3.88,0,0,0-1.9-1.44,10.87,10.87,0,0,0-5.14.14A25,25,0,0,0,73.42,5.7,36.07,36.07,0,0,0,68,9.21a27.31,27.31,0,0,0-4.11,3.91c-1,1.25-1.29,2.3-1,3.15a4.49,4.49,0,0,0,2.18,2.21A34.24,34.24,0,0,0,69,20.3c1.14.46,2.25,1,3.34,1.49a13.82,13.82,0,0,1,2.85,1.83A5.36,5.36,0,0,1,76.89,26a.52.52,0,0,0,.42.31.92.92,0,0,0,.55-.07h0Q83,24,87.26,22.54a.15.15,0,0,1,.18.05.21.21,0,0,1-.09.32Q82.87,24.59,78,27a2,2,0,0,0-1.1,1.33h0a11.52,11.52,0,0,1-2.09,3.36,56.63,56.63,0,0,1-7.69,8,16,16,0,0,1-3.23,2.14,10.6,10.6,0,0,1-2.84,1.26c-.81.12-1.76-.08-2-.58a2.7,2.7,0,0,1,.41-2.66,18.52,18.52,0,0,1,4.35-5,67,67,0,0,1,9.32-6.11c.27-.14,1.19-.71,2.21-1.38a.92.92,0,0,0,.31-.44,2.06,2.06,0,0,0,.13-.46,4,4,0,0,0-1.35-1.92A12.26,12.26,0,0,0,72,23c-1-.46-2-.9-3-1.33-1.26-.49-2.44-1-3.56-1.56a9.58,9.58,0,0,1-2.72-1.91,3.51,3.51,0,0,1-1-2.58A6.55,6.55,0,0,1,63.18,12Zm1.76,28c1-.74,3.2-2.69,4.31-3.72s5.87-6.41,6.38-7.58c.09-.22.07-.35,0-.39a.67.67,0,0,0-.52.09c-2.43,1.3-9.46,5.75-11,7.22a24.8,24.8,0,0,0-4,4.69c-.55.76-.43,1.69.56,1.76C61.45,42.19,63,41.49,64.94,40.07Z"/><path class="cls-3" d="M97.33,22.58a.3.3,0,0,1,.11,0,.09.09,0,0,1,.07,0,.1.1,0,0,1,0,.05l0,.07v.09c-.67.52-1.21.92-1.61,1.21s-.73.52-1,.7l-.87.55-.52.32a6.12,6.12,0,0,1-2.65,1.08A1.1,1.1,0,0,1,89.75,26a3.46,3.46,0,0,1-.09-1.73,10,10,0,0,1,.55-2.05c.05-.14.06-.22,0-.25s-.14,0-.31.1a9.29,9.29,0,0,0-1.32,1.06l-.28.26c-.79.71-1.55,1.37-2.3,2a9.46,9.46,0,0,1-2,1.27q-.84.38-1.17-.15a1.92,1.92,0,0,1,.21-1.79,9.27,9.27,0,0,1,1.64-2.14,12.1,12.1,0,0,1,2.18-1.77A3.66,3.66,0,0,1,88.8,20c.49,0,.71.38.66,1.1h0a.24.24,0,0,0,0,.12s0,.06,0,.07.07,0,.13,0a1.93,1.93,0,0,1,1.17-.58c.28.06.4.32.35.78a10,10,0,0,1-.3,1.63c-.14.57-.24,1.1-.31,1.59a1.47,1.47,0,0,0,.15,1.08c.25.26.66.3,1.22.13a8.35,8.35,0,0,0,1.83-.85c.67-.4,1.3-.81,1.89-1.24s1-.76,1.36-1ZM83.89,25.84c.1.14.4,0,.91-.32a22.2,22.2,0,0,0,1.77-1.38c.67-.58,1.3-1.13,1.9-1.67a.71.71,0,0,0,.15-.21.39.39,0,0,0,0-.28c-.17-.29-.5-.34-1-.13a5.81,5.81,0,0,0-1.53.94A8,8,0,0,0,84.89,24a8.17,8.17,0,0,0-.86,1.3C83.89,25.58,83.84,25.76,83.89,25.84Z"/><path class="cls-4" d="M104.88,22.55a.13.13,0,0,1,.11.09c0,.05,0,.11-.07.17a20.46,20.46,0,0,1-1.86,1.43,11.82,11.82,0,0,1-2.21,1.2,5.71,5.71,0,0,1-2.29.46q-.78,0-1-.42a1.25,1.25,0,0,1,0-.94A9.06,9.06,0,0,1,98,23.42a8.47,8.47,0,0,0,.31-.79.81.81,0,0,0,0-.54c-.19-.21-.46-.12-.81.28a14.37,14.37,0,0,0-1.16,1.56A19.35,19.35,0,0,1,95,25.8c-.47.54-.88.76-1.25.66a.39.39,0,0,1-.23-.45,3.47,3.47,0,0,1,.24-.78c.2-.46.37-.86.5-1.2a16.69,16.69,0,0,1,.91-2,.39.39,0,0,1,.3-.14.74.74,0,0,1,.39.07.34.34,0,0,1,.18.33h0a9,9,0,0,0-.39,1.21q-.1.39-.24.78h0a.64.64,0,0,1,0,.07s0,0,0,.06v0h0s0,0,.06,0l.1-.13h0v0c.3-.43.63-.89,1-1.37a13.91,13.91,0,0,1,1-1.22,1.51,1.51,0,0,1,.66-.38.86.86,0,0,1,.8.14v0h0a.44.44,0,0,1,.08.11.78.78,0,0,1,.11.18l0,.08a1.38,1.38,0,0,1,0,.83,7.58,7.58,0,0,1-.33.86,3.87,3.87,0,0,0-.33.88.67.67,0,0,0,.16.68c.4.31,1.17.24,2.31-.2a12.64,12.64,0,0,0,3.62-2.3A.21.21,0,0,1,104.88,22.55Z"/><path class="cls-6" d="M116.67,22.54a.26.26,0,0,1,.23.11q.06.11-.12.3c-1,1-1.92,2-2.87,3.16s-1.89,2.27-2.8,3.4q-1.64,2-3.07,3.68a16.11,16.11,0,0,1-2.53,2.46q-1.11.81-1.8.36c-.46-.37-.56-1.26-.28-2.66A32.22,32.22,0,0,1,105,28.18q1.17-3.08,2.73-6.58t3.19-6.89c1.08-2.25,2.07-4.27,2.94-6.06s1.44-2.94,1.89-3.9c0,0,0,0,0,0a0,0,0,0,0,0,0,.53.53,0,0,0,.07-.23,2.71,2.71,0,0,0-.32.42c-.18.26-.37.56-.58.9l-.56,1h0l-1,1.82c-1.06,2-2.28,4.22-3.64,6.64S107,20,105.42,22.25l0,.08a.44.44,0,0,1,0,.1v0a.45.45,0,0,1,0,.23.6.6,0,0,1-.08.16.18.18,0,0,1-.15.07h0L105,23a.24.24,0,0,0-.14.11h0a35,35,0,0,1-2.53,3.32,6.18,6.18,0,0,1-2,1.68c-.66.23-1,.13-1.07-.3A3.55,3.55,0,0,1,99.7,26a12.86,12.86,0,0,1,1.44-2.25A7.63,7.63,0,0,1,103,22a1.72,1.72,0,0,1,1.77-.21h0a.31.31,0,0,0,.23,0,.26.26,0,0,0,.14-.11c1.48-2.27,3-4.7,4.43-7.31s2.82-5,4-7.27,2.14-3.88,2.83-5.06a.51.51,0,0,1,.4-.23.56.56,0,0,1,.43.11c.21.24.12,1-.28,2.19s-1,2.76-1.79,4.6-1.7,3.84-2.69,6-2,4.22-3,6.28q-3,6.36-4.2,9.21a24.29,24.29,0,0,0-1.08,3.41q-.33,1.44.18,1.68t2-1.23q1.38-1.42,3.52-4,2.63-3.2,6.42-7.33h0A.33.33,0,0,1,116.67,22.54ZM104.29,23c.07-.12,0-.16-.19-.12a5.36,5.36,0,0,0-1.87,1.18,13.62,13.62,0,0,0-1.67,1.85,5.58,5.58,0,0,0-.86,1.49c-.1.35.08.39.55.11A17.1,17.1,0,0,0,104.29,23Z"/><path class="cls-7" d="M122.83,22.7l-.24.11a3.37,3.37,0,0,1-1.06.37,1.49,1.49,0,0,1-1.08-.36,8.5,8.5,0,0,1-1.52-1.62,1.8,1.8,0,0,0-.2-.18.5.5,0,0,0-.34-.15.22.22,0,0,0-.2.1.67.67,0,0,0-.09.21.38.38,0,0,0,0,.18h0a5.66,5.66,0,0,1-.86,2.44,6.38,6.38,0,0,1-2,2.13c-1,.56-1.63.69-1.94.4s-.39-.8-.22-1.52a7.35,7.35,0,0,1,.91-2.18,4.78,4.78,0,0,1,1.42-1.59.91.91,0,0,1,1.35.26h0c0,.06.07.08.08.07s0-.05,0-.12h0c0-.11-.06-.21-.08-.3a.64.64,0,0,1,.09-.57,1.16,1.16,0,0,1,.43-.31,1.41,1.41,0,0,1,1,0,2.42,2.42,0,0,1,1.09.88,6.72,6.72,0,0,1,.55.74,3.07,3.07,0,0,0,1,1,2,2,0,0,0,1.74-.16.35.35,0,0,1,.18,0s.06,0,0,.07S122.88,22.68,122.83,22.7Zm-6,0c.06-.15,0-.26,0-.32q-.5-.25-1.17.3a4.52,4.52,0,0,0-1.13,1.4,2.24,2.24,0,0,0-.33,1.51.21.21,0,0,0,.1.13.26.26,0,0,0,.18.06.79.79,0,0,0,.23-.08h0A4.19,4.19,0,0,0,116,24.48,5.75,5.75,0,0,0,116.88,22.7Z"/><path class="cls-8" d="M132.16,18q-1.44,1.46-3.84,4.2-1.72,2-3.55,4c-1.22,1.33-2.35,2.48-3.41,3.46a9.07,9.07,0,0,1-2.57,1.83c-.66.25-1-.05-1.05-.89a15.35,15.35,0,0,1,1.16-4.74h0A27.63,27.63,0,0,1,120,23.19c.44-.94.87-1.82,1.3-2.65s.84-1.62,1.26-2.34h0a1.21,1.21,0,0,0,.1-.19s0,0,0,0,0,0,0,0l0,0h0a1,1,0,0,1,.51-.32.86.86,0,0,1,.45,0,.44.44,0,0,1,.29.27.78.78,0,0,1,0,.5c-.66,1.56-1.38,3.08-2.18,4.58-.54,1-1,2.05-1.53,3.07a16.13,16.13,0,0,0-1.58,4.34c0,.61.34.62,1.06.05a28,28,0,0,0,2.79-2.77q1.71-1.89,3.6-4.1t3.34-3.82a21.41,21.41,0,0,1,2.42-2.39.29.29,0,0,1,.3,0,.34.34,0,0,1,.18.26A.48.48,0,0,1,132.16,18Z"/><path class="cls-3" d="M141.17,22.58a.3.3,0,0,1,.11,0,.09.09,0,0,1,.07,0,.1.1,0,0,1,0,.05l0,.07v.09c-.67.52-1.21.92-1.61,1.21s-.73.52-1,.7l-.87.55-.52.32a6.12,6.12,0,0,1-2.65,1.08A1.08,1.08,0,0,1,133.6,26a3.34,3.34,0,0,1-.1-1.73,10,10,0,0,1,.55-2.05c0-.14.06-.22,0-.25s-.14,0-.31.1a9.29,9.29,0,0,0-1.32,1.06l-.28.26c-.79.71-1.55,1.37-2.3,2a9.46,9.46,0,0,1-2,1.27q-.84.38-1.17-.15a1.92,1.92,0,0,1,.21-1.79,9.27,9.27,0,0,1,1.64-2.14,12.1,12.1,0,0,1,2.18-1.77,3.66,3.66,0,0,1,1.87-.7c.49,0,.71.38.66,1.1h0a.24.24,0,0,0,0,.12s0,.06.05.07.07,0,.13,0a1.93,1.93,0,0,1,1.17-.58c.28.06.4.32.35.78a10,10,0,0,1-.3,1.63c-.14.57-.24,1.1-.31,1.59a1.47,1.47,0,0,0,.15,1.08c.25.26.66.3,1.22.13a8.35,8.35,0,0,0,1.83-.85c.67-.4,1.3-.81,1.89-1.24s1-.76,1.36-1Zm-13.44,3.26c.1.14.4,0,.91-.32a22.2,22.2,0,0,0,1.77-1.38c.67-.58,1.3-1.13,1.9-1.67a.71.71,0,0,0,.15-.21.39.39,0,0,0,0-.28c-.17-.29-.5-.34-1-.13a6,6,0,0,0-1.54.94A8.3,8.3,0,0,0,128.73,24a7.51,7.51,0,0,0-.86,1.3C127.73,25.58,127.68,25.76,127.73,25.84Z"/><path class="cls-9" d="M154.41,22.6a.34.34,0,0,1,.24-.07.23.23,0,0,1,.18.12c0,.07,0,.16-.08.27q-2.19,2.58-4.24,4.89c-1.37,1.55-2.79,3.05-4.24,4.52q-6.06,6-9,7T134.37,37q0-3.42,2.94-10.75,3-7.65,5.75-13.67T149.28.28a.5.5,0,0,1,.45-.28.46.46,0,0,1,.39.27.72.72,0,0,1-.07.64A141.06,141.06,0,0,0,143.63,14q-2.53,6-6,15.23l-.24.66c-.09.22-.22.58-.39,1.07s-.34,1.06-.51,1.7-.34,1.29-.49,2a13.91,13.91,0,0,0-.27,1.86,3.6,3.6,0,0,0,.11,1.38.66.66,0,0,0,.68.53,5.08,5.08,0,0,0,2.47-.85,23.36,23.36,0,0,0,3.13-2.26q1.68-1.41,3.44-3.13T149,28.62c1.11-1.18,2.12-2.29,3.06-3.34S153.76,23.34,154.41,22.6Z"/></g></g></svg>