<svg xmlns="http://www.w3.org/2000/svg" xmlns:xlink="http://www.w3.org/1999/xlink" viewBox="0 0 24 36.01"><defs><style>.cls-1{fill:url(#Nueva_muestra_de_degradado_1)}.cls-2{fill:#fff}</style><linearGradient id="Nueva_muestra_de_degradado_1" x1="12" x2="12" y1="3.59" y2="32.96" gradientUnits="userSpaceOnUse"><stop offset="0" stop-color="#f3d536"/><stop offset=".45" stop-color="#e1b218"/><stop offset=".75" stop-color="#fbe546"/><stop offset="1" stop-color="#e1b218"/></linearGradient></defs><g id="Capa_2" data-name="Capa 2"><g id="Capa_1-2" data-name="Capa 1"><path d="M13.07,36H10.93A11,11,0,0,1,0,25.08V10.93A11,11,0,0,1,10.93,0h2.14A10.94,10.94,0,0,1,24,10.93V25.08A10.94,10.94,0,0,1,13.07,36ZM10.93,2.06a8.88,8.88,0,0,0-8.87,8.87V25.08a8.88,8.88,0,0,0,8.87,8.86h2.14a8.88,8.88,0,0,0,8.87-8.86V10.93a8.88,8.88,0,0,0-8.87-8.87Z" class="cls-1"/><path d="M16.14,11.18h0a.8.8,0,0,0-1.16,0l-2.14,2.34V5A.83.83,0,0,0,12,4.2a.82.82,0,0,0-.83.83v8.52L9,11.21a.81.81,0,0,0-1.17,0h0a.81.81,0,0,0,0,1.07l3.54,3.91a.8.8,0,0,0,1.17,0l3.57-3.91A.85.85,0,0,0,16.14,11.18Z" class="cls-2"/></g></g></svg>