<svg xmlns="http://www.w3.org/2000/svg" xmlns:xlink="http://www.w3.org/1999/xlink" viewBox="0 0 69.86 47.21"><defs><style>.cls-1{fill:url(#Nueva_muestra_de_degradado_1)}.cls-2{fill:url(#Nueva_muestra_de_degradado_1-2)}</style><linearGradient id="Nueva_muestra_de_degradado_1" x1="24.13" x2="24.13" y1="-1.12" y2="40.72" gradientUnits="userSpaceOnUse"><stop offset="0" stop-color="#f3d536"/><stop offset=".45" stop-color="#e1b218"/><stop offset=".75" stop-color="#fbe546"/><stop offset="1" stop-color="#e1b218"/></linearGradient><linearGradient id="Nueva_muestra_de_degradado_1-2" x1="41.83" x2="41.83" y1="-1.12" y2="40.72" xlink:href="#Nueva_muestra_de_degradado_1"/></defs><g id="Capa_2" data-name="Capa 2"><g id="Capa_1-2" data-name="Capa 1"><path d="M20,8.37a7.76,7.76,0,0,0,4.09-.95A6.51,6.51,0,0,1,30,7.23c4.76,1.66,12.12,4.07,15,5a3,3,0,0,1-.84,1.62,1.92,1.92,0,0,1-1.76.26,42.85,42.85,0,0,1-8.47-2.78,1.57,1.57,0,0,0-2.07.76,1.31,1.31,0,0,0-.08.21,10.61,10.61,0,0,1-4.68,5.94A8.05,8.05,0,0,1,20.44,18a1.55,1.55,0,0,0-1.18,2.87,11,11,0,0,0,9.22.15,12.76,12.76,0,0,0,5.67-6.24,43.4,43.4,0,0,0,7.65,2.36,5,5,0,0,0,4.34-.9,7,7,0,0,0,2.12-5.1,1.55,1.55,0,0,0-1.07-1.47C47.09,9.66,37,6.38,31,4.3a9.46,9.46,0,0,0-8.24.3,4.79,4.79,0,0,1-2.56.67,8.58,8.58,0,0,1-1.66-.34l-.12,0-.21,0a57.72,57.72,0,0,1-8.69-4,1.54,1.54,0,0,0-2.11.59,1.59,1.59,0,0,0-.12.27L.08,23.44a1.56,1.56,0,0,0,1,2h0l9.48,2.9a1.56,1.56,0,0,0,1.92-1L19,8.22A9,9,0,0,0,20,8.37ZM10,24.91l-6.51-2L9.68,4.45A59.45,59.45,0,0,0,16,7.32Z" class="cls-1"/><path d="M69.69,22.32,59,.86A1.55,1.55,0,0,0,57,.16l-.07,0-9,5a1.54,1.54,0,0,0-.63,2l9.87,20A103.67,103.67,0,0,1,45.93,35.9c-6.42,3.77-15.1,8.19-16.52,8.24a2.46,2.46,0,0,1-1-1.89c0-.5.09-1.22,1.31-1.75,3.93-1.7,8.57-4,8.62-4A1.55,1.55,0,0,0,37,33.73c-.05,0-4.62,2.24-8.5,3.92a5.88,5.88,0,0,0-1.49.92h0a16,16,0,0,1-5,2.8,2.29,2.29,0,0,1-.61-1.64,1.84,1.84,0,0,1,1.28-1.67c3.53-1.53,12.12-6,12.49-6.22A1.55,1.55,0,0,0,33.7,29.1h0c-.09,0-8.85,4.64-12.27,6.13a5.94,5.94,0,0,0-1.2.69,4.33,4.33,0,0,1-2.68.24.7.7,0,0,1-.36-.41c.73-1.47,7.33-5.09,14.38-7.87A1.55,1.55,0,0,0,30.43,25a76.2,76.2,0,0,0-11.3,5.34,7,7,0,0,1-2.2-1.88,19.08,19.08,0,0,1,6.38-3.17,1.55,1.55,0,0,0-.94-3c-1.05.34-6.36,2.12-8,4.39a2.86,2.86,0,0,0-.47,2.37,6.25,6.25,0,0,0,2.53,3.16c-1.84,1.53-2.61,2.93-2.27,4.18A3.89,3.89,0,0,0,16.19,39a4.94,4.94,0,0,0,2.11.45c0,.12,0,.25,0,.38a5,5,0,0,0,2.53,4.49,2.8,2.8,0,0,0,1.07.21,8.12,8.12,0,0,0,3.54-1.17,5,5,0,0,0,3.33,3.87,2.43,2.43,0,0,0,.38,0c3.5,0,15.85-7.15,18.38-8.64A111.72,111.72,0,0,0,60,28.92l9-4.52A1.55,1.55,0,0,0,69.69,22.32Zm-9.9,3.22L50.73,7.19,57,3.7l9.25,18.62Z" class="cls-2"/></g></g></svg>