<svg xmlns="http://www.w3.org/2000/svg" xmlns:xlink="http://www.w3.org/1999/xlink" viewBox="0 0 61.11 62"><defs><style>.cls-1{fill:url(#Nueva_muestra_de_degradado_1);}.cls-2{fill:url(#Nueva_muestra_de_degradado_1-2);}.cls-3{fill:url(#Nueva_muestra_de_degradado_1-3);}.cls-4{fill:url(#Nueva_muestra_de_degradado_1-4);}.cls-5{fill:url(#Nueva_muestra_de_degradado_1-5);}</style><linearGradient id="Nueva_muestra_de_degradado_1" x1="30.55" y1="-1.27" x2="30.55" y2="54.34" gradientUnits="userSpaceOnUse"><stop offset="0" stop-color="#f3d536"/><stop offset="0.45" stop-color="#e1b218"/><stop offset="0.75" stop-color="#fbe546"/><stop offset="1" stop-color="#e1b218"/></linearGradient><linearGradient id="Nueva_muestra_de_degradado_1-2" x1="30.55" y1="-1.27" x2="30.55" y2="54.34" xlink:href="#Nueva_muestra_de_degradado_1"/><linearGradient id="Nueva_muestra_de_degradado_1-3" x1="30.55" y1="-1.27" x2="30.55" y2="54.34" xlink:href="#Nueva_muestra_de_degradado_1"/><linearGradient id="Nueva_muestra_de_degradado_1-4" x1="40.55" y1="-1.27" x2="40.55" y2="54.34" xlink:href="#Nueva_muestra_de_degradado_1"/><linearGradient id="Nueva_muestra_de_degradado_1-5" x1="20.55" y1="-1.27" x2="20.55" y2="54.34" xlink:href="#Nueva_muestra_de_degradado_1"/></defs><g id="Capa_2" data-name="Capa 2"><g id="Capa_1-2" data-name="Capa 1"><path class="cls-1" d="M61.11,20.17l-11.56-7.7V1a1,1,0,0,0-1-1h-9a1,1,0,0,0-1,1V5.13l-7.44-5A1,1,0,0,0,30,.17l-30,20,1.11,1.66,4.44-3V41a1,1,0,0,0,1,1h7V40h-6V17.54l23-15.34,23,15.34V40h-6v2h7a1,1,0,0,0,1-1V18.87l4.45,3ZM40.55,2h7v9.13l-7-4.66Z"/><path class="cls-2" d="M37.55,15a7,7,0,1,0-7,7A7,7,0,0,0,37.55,15Zm-12,0a5,5,0,1,1,5,5A5,5,0,0,1,25.55,15Z"/><path class="cls-3" d="M46.45,34.55l-3-6a1,1,0,0,0-.59-.5,1,1,0,0,0-.77.06l-11.54,6L19,28.11a1,1,0,0,0-.77-.06,1,1,0,0,0-.58.5l-3,6a1,1,0,0,0,.43,1.34l6,3.11-6,3.11a1,1,0,0,0-.43,1.34l3,6a1,1,0,0,0,.58.5,1.18,1.18,0,0,0,.31,0,1,1,0,0,0,.46-.11l8.54-4.43V62h2V44.42l1-.52,1,.52V62h2V45.46l8.54,4.43a1.07,1.07,0,0,0,.46.11,1.06,1.06,0,0,0,.31,0,1,1,0,0,0,.59-.5l3-6A1,1,0,0,0,46,42.11L40,39l6-3.11A1,1,0,0,0,46.45,34.55ZM19,47.65l-2.1-4.22,6.38-3.3,5.11,2.65Zm23.12,0L16.89,34.57,19,30.36,44.22,43.43Zm-4.27-9.78-5.11-2.65,9.38-4.86,2.11,4.21Z"/><rect class="cls-4" x="39.55" y="33" width="2" height="2"/><rect class="cls-5" x="19.55" y="43" width="2" height="2"/><rect class="cls-5" x="19.55" y="33" width="2" height="2"/><rect class="cls-4" x="39.55" y="43" width="2" height="2"/></g></g></svg>