<svg xmlns="http://www.w3.org/2000/svg" xmlns:xlink="http://www.w3.org/1999/xlink" viewBox="0 0 38.61 51.48"><defs><style>.cls-1{fill:url(#Nueva_muestra_de_degradado_1);}</style><linearGradient id="Nueva_muestra_de_degradado_1" x1="19.31" y1="-2.45" x2="19.31" y2="44.37" gradientUnits="userSpaceOnUse"><stop offset="0" stop-color="#f3d536"/><stop offset="0.45" stop-color="#e1b218"/><stop offset="0.75" stop-color="#fbe546"/><stop offset="1" stop-color="#e1b218"/></linearGradient></defs><g id="Capa_2" data-name="Capa 2"><g id="Capa_1-2" data-name="Capa 1"><path class="cls-1" d="M4.29,0A4.3,4.3,0,0,0,0,4.29v42.9a4.3,4.3,0,0,0,4.29,4.29h30a4.29,4.29,0,0,0,4.29-4.29V11.8A1.07,1.07,0,0,0,38.3,11L27.57.31A1.07,1.07,0,0,0,26.81,0Zm0,2.15H25.74V8.58A4.3,4.3,0,0,0,30,12.87h6.44V47.19a2.16,2.16,0,0,1-2.15,2.15h-30a2.15,2.15,0,0,1-2.14-2.15V4.29A2.14,2.14,0,0,1,4.29,2.15Zm23.6,1.51L35,10.73H30a2.15,2.15,0,0,1-2.14-2.15ZM7.51,10.73a1.07,1.07,0,0,0,0,2.14H20.38a1.07,1.07,0,0,0,0-2.14Zm0,6.43a1.08,1.08,0,0,0,0,2.15H31.1a1.08,1.08,0,1,0,0-2.15Zm0,6.44a1.07,1.07,0,1,0,0,2.14H31.1a1.07,1.07,0,1,0,0-2.14ZM16.09,30a1.08,1.08,0,0,0,0,2.15h15a1.08,1.08,0,1,0,0-2.15ZM9.65,34.32c-1.26,0-3.21,1.84-3.21,4.29a6.72,6.72,0,0,0,1.45,3.6,10.51,10.51,0,0,1-1,.91,1.07,1.07,0,0,0,.65,1.93,1,1,0,0,0,.64-.22,11.34,11.34,0,0,0,1.17-1,4.19,4.19,0,0,0,2.48,1.24c1.45,0,2.31-1.65,3.06-3.17.49,1.64,1,3.17,2.3,3.17,3.29,0,1,0,6.15,0,.27-.14.91-.18.92-1a1.13,1.13,0,0,0-.82-1.21c-2.33-.06-3.84-.07-6-.15a15.76,15.76,0,0,1-.53-1.55c-.43-1.45-.78-2.59-1.87-2.59s-1.37.86-2,2.16a12.17,12.17,0,0,1-1.2,2.13,2.49,2.49,0,0,1-1.07-.7c1.18-1.53,2.13-3.3,2.13-4.66a3.16,3.16,0,0,0-3.22-3.22Zm0,2.15a1,1,0,0,1,1.08,1.07,6.45,6.45,0,0,1-1.4,3,3.81,3.81,0,0,1-.75-1.9A2.75,2.75,0,0,1,9.65,36.47Z"/></g></g></svg>