<svg xmlns="http://www.w3.org/2000/svg" xmlns:xlink="http://www.w3.org/1999/xlink" viewBox="0 0 48.76 49.21"><defs><style>.cls-1{fill-rule:evenodd;fill:url(#Nueva_muestra_de_degradado_1);}</style><linearGradient id="Nueva_muestra_de_degradado_1" x1="24.38" y1="0.62" x2="24.38" y2="49.82" gradientUnits="userSpaceOnUse"><stop offset="0" stop-color="#f3d536"/><stop offset="0.45" stop-color="#e1b218"/><stop offset="0.75" stop-color="#fbe546"/><stop offset="1" stop-color="#e1b218"/></linearGradient></defs><g id="Capa_2" data-name="Capa 2"><g id="Capa_1-2" data-name="Capa 1"><path class="cls-1" d="M42.58,38.12v-32A6.12,6.12,0,0,0,36.46,0H6.12A6.13,6.13,0,0,0,0,6.12v5.2H9.82V43.09a6.13,6.13,0,0,0,6.12,6.12H42.63a6.13,6.13,0,0,0,6.13-6.12v-5ZM9.82,8.9H2.43V6.12a3.7,3.7,0,0,1,7.39,0V8.9Zm9.82,34.19a3.7,3.7,0,0,1-7.39,0v-37A6.06,6.06,0,0,0,11,2.43H36.46a3.69,3.69,0,0,1,3.69,3.69v32H19.64v5Zm26.69,0a3.7,3.7,0,0,1-3.7,3.69H20.82a6.06,6.06,0,0,0,1.25-3.69V40.55H46.33v2.54ZM19.45,10.31H33.51V7.89H19.45Zm0,6H33.51V13.85H19.45Zm0,6H33.51V19.82H19.45Zm0,6H33.51V25.78H19.45Zm0,6H33.51V31.75H19.45Z"/></g></g></svg>