<svg xmlns="http://www.w3.org/2000/svg" xmlns:xlink="http://www.w3.org/1999/xlink" viewBox="0 0 46.25 51.83"><defs><style>.cls-1{fill:url(#Nueva_muestra_de_degradado_1);}.cls-2{fill:url(#Nueva_muestra_de_degradado_1-2);}.cls-3{fill:url(#Nueva_muestra_de_degradado_1-3);}.cls-4{fill:url(#Nueva_muestra_de_degradado_1-4);}.cls-5{fill:url(#Nueva_muestra_de_degradado_1-5);}.cls-6{fill:url(#Nueva_muestra_de_degradado_1-6);}.cls-7{fill:url(#Nueva_muestra_de_degradado_1-7);}</style><linearGradient id="Nueva_muestra_de_degradado_1" x1="11.79" y1="-2.19" x2="11.79" y2="53.03" gradientUnits="userSpaceOnUse"><stop offset="0" stop-color="#f3d536"/><stop offset="0.45" stop-color="#e1b218"/><stop offset="0.75" stop-color="#fbe546"/><stop offset="1" stop-color="#e1b218"/></linearGradient><linearGradient id="Nueva_muestra_de_degradado_1-2" x1="8.55" y1="-2.19" x2="8.55" y2="53.03" xlink:href="#Nueva_muestra_de_degradado_1"/><linearGradient id="Nueva_muestra_de_degradado_1-3" x1="34.45" y1="-2.19" x2="34.45" y2="53.03" xlink:href="#Nueva_muestra_de_degradado_1"/><linearGradient id="Nueva_muestra_de_degradado_1-4" x1="37.7" y1="-2.19" x2="37.7" y2="53.03" xlink:href="#Nueva_muestra_de_degradado_1"/><linearGradient id="Nueva_muestra_de_degradado_1-5" x1="10.95" y1="-2.19" x2="10.95" y2="53.03" xlink:href="#Nueva_muestra_de_degradado_1"/><linearGradient id="Nueva_muestra_de_degradado_1-6" x1="34.89" y1="-2.19" x2="34.89" y2="53.03" xlink:href="#Nueva_muestra_de_degradado_1"/><linearGradient id="Nueva_muestra_de_degradado_1-7" x1="23.12" y1="-2.19" x2="23.12" y2="53.03" xlink:href="#Nueva_muestra_de_degradado_1"/></defs><g id="Capa_2" data-name="Capa 2"><g id="Capa_1-2" data-name="Capa 1"><path class="cls-1" d="M12.54,36.1h-.22a1,1,0,0,1-.62-.22.3.3,0,0,0-.19-.09c-.09,0-.16.07-.17.22a.86.86,0,0,1-.41.62c-.21.11-.2.28,0,.37a1,1,0,0,1,.5.6c0,.14.1.21.19.21a.26.26,0,0,0,.18-.11,1,1,0,0,1,.64-.26h.15c.19,0,.26-.13.14-.31a.92.92,0,0,1-.05-.76C12.79,36.22,12.71,36.1,12.54,36.1Z"/><path class="cls-2" d="M9.3,37.31H9.21l-.13,0a1,1,0,0,1-.62-.23.32.32,0,0,0-.2-.09c-.09,0-.15.08-.16.22a.89.89,0,0,1-.42.63c-.21.11-.2.27,0,.37a1,1,0,0,1,.49.6c0,.13.11.2.19.2a.26.26,0,0,0,.19-.1,1,1,0,0,1,.64-.26h.15c.19,0,.25-.13.14-.32a.86.86,0,0,1,0-.75C9.54,37.44,9.47,37.31,9.3,37.31Z"/><path class="cls-3" d="M33.64,37.47h.15a1,1,0,0,1,.63.26.29.29,0,0,0,.19.11c.09,0,.16-.07.19-.21a1,1,0,0,1,.49-.6c.23-.09.24-.26,0-.37a.86.86,0,0,1-.41-.62c0-.15-.08-.22-.17-.22a.28.28,0,0,0-.19.09,1,1,0,0,1-.63.22h-.21c-.18,0-.25.12-.16.3a.92.92,0,0,1-.06.76C33.38,37.34,33.45,37.47,33.64,37.47Z"/><path class="cls-4" d="M36.88,38.69H37a1,1,0,0,1,.64.26.26.26,0,0,0,.19.1c.08,0,.15-.07.18-.2a1,1,0,0,1,.5-.6c.22-.1.23-.26,0-.37a.89.89,0,0,1-.42-.63c0-.14-.08-.22-.17-.22a.32.32,0,0,0-.19.09,1,1,0,0,1-.62.23l-.13,0H37c-.17,0-.24.13-.16.31a.86.86,0,0,1,0,.75C36.63,38.56,36.69,38.69,36.88,38.69Z"/><path class="cls-5" d="M7.3,46.56a1.16,1.16,0,0,0,.78,1l2.5.89a1.91,1.91,0,0,0,.37.09,1.79,1.79,0,0,0,.38-.09l2.5-.89a1.15,1.15,0,0,0,.77-1V42.09a.81.81,0,0,0-.81-.81H8.11a.82.82,0,0,0-.81.81Zm1.63-3.65H13v3.27l-2,.72-2-.72Z"/><path class="cls-6" d="M31.24,42.09v4.47a1.15,1.15,0,0,0,.77,1l2.51.89a1.62,1.62,0,0,0,.37.09,1.62,1.62,0,0,0,.37-.09l2.5-.89a1.16,1.16,0,0,0,.78-1V42.09a.81.81,0,0,0-.81-.81H32.05A.81.81,0,0,0,31.24,42.09Zm1.62.82h4.06v3.27l-2,.72-2-.72Z"/><path class="cls-7" d="M46.24,43c-.53-8.12-11.43-9.83-11.43-9.83A7,7,0,0,1,29.91,29a24,24,0,0,0,4.5-9.06,13.77,13.77,0,0,0,.47-3.31,2.44,2.44,0,0,0,.4-1.2,4.76,4.76,0,0,1,1-2.51l1.46-1.77A1.46,1.46,0,0,0,37.49,9c-4.23-3-13.08-8.6-13.08-8.6A2.73,2.73,0,0,0,23,0a2.62,2.62,0,0,0-1.36.34s-9.46,5.77-13,8.5a1.62,1.62,0,0,0-.06,2.39l1.75,1.85a4.58,4.58,0,0,1,1.11,2.69,2,2,0,0,0,.73,1.46,21.71,21.71,0,0,0,4.26,11.62,8.36,8.36,0,0,1-2.7,3.37l-.21.14a5.55,5.55,0,0,1-2.05.79S.59,34.86.06,43c0,0-.26.71.29,5.77a3.62,3.62,0,0,0,3.56,3.08h16.3l-.47-.34a3.67,3.67,0,0,1-1.07-1.28H3.91A2,2,0,0,1,2,48.58a31.9,31.9,0,0,1-.33-5.18l0-.08,0-.23c.44-6.72,10-8.32,10.07-8.33h0a7.3,7.3,0,0,0,1.68-.5l4.37,6.25a1.16,1.16,0,0,0,1,.78,1.28,1.28,0,0,0,.95-.51l.83-1.37.57,1-1.29,7.79a2.06,2.06,0,0,0,.79,2l1.92,1.41a1.26,1.26,0,0,0,.74.24,1,1,0,0,0,.71-.26L26,50.18a2,2,0,0,0,.74-2l-1.6-7.72.53-1,.8,1.31a1.28,1.28,0,0,0,.95.51,1.16,1.16,0,0,0,1-.78l4.38-6.27a7.59,7.59,0,0,0,1.73.52h0c.09,0,9.6,1.61,10.06,8.31a51,51,0,0,1-.36,5.53,1.94,1.94,0,0,1-1.88,1.61H28a3.54,3.54,0,0,1-1.06,1.28l-.47.34H42.38a3.54,3.54,0,0,0,3.5-3.08A49.53,49.53,0,0,0,46.24,43ZM24.45,34.63a2.33,2.33,0,0,0-.34.57h-2a2.08,2.08,0,0,0-.35-.57l-4.56-3.81c.15-.24.29-.48.41-.71a8.71,8.71,0,0,0,5.74,2.25,7.68,7.68,0,0,0,5-1.81l.38-.34c.1.19.21.38.34.58ZM27.3,29.3a6,6,0,0,1-3.92,1.43A7.17,7.17,0,0,1,18,28.15a20,20,0,0,1-4.1-10.24A44.26,44.26,0,0,0,23.33,19h.3c5.64,0,8.33-.62,9.52-1a11.85,11.85,0,0,1-.31,1.53C31.72,23.66,29.65,27.33,27.3,29.3Zm-4.18-14a3.24,3.24,0,0,0,2.81-1.62H34a5,5,0,0,0-.36,1.68,1.94,1.94,0,0,1-.59.88c-.28.13-2.46,1-9.45,1.09h-.29a41.9,41.9,0,0,1-9.86-1.21.66.66,0,0,1-.37-.37,5.53,5.53,0,0,0-.47-2.07h7.69A3.22,3.22,0,0,0,23.12,15.32ZM21.5,12.07a1.63,1.63,0,1,1,1.62,1.63A1.63,1.63,0,0,1,21.5,12.07Zm-11.71-2,0,0C13.21,7.4,22.4,1.79,22.49,1.73A1.1,1.1,0,0,1,23,1.62a1,1,0,0,1,.53.12c.09.05,8.71,5.48,12.9,8.46l-1.37,1.66c-.06.06-.11.14-.17.21H26.37a3.25,3.25,0,0,0-6.49,0H11.63L11.54,12Zm9.09,29.05-4-5.72.52-.34.18-.12.14-.16.6-.65,4.31,3.6a.6.6,0,0,1,0,.61l-.08.1-.06.1Zm6.27,9.39a.43.43,0,0,1-.13.32L23.34,50.1l-1.69-1.23a.54.54,0,0,1-.15-.36l1.33-8h.65l1.66,8Zm-1-9.7H22.19l-.59-1,.23-.38a1.84,1.84,0,0,0,.34-.61h1.9a1.86,1.86,0,0,0,.35.61l.26.43Zm3.23.31L25.8,36.58l-.06-.1-.08-.1a.56.56,0,0,1,0-.61l4.31-3.6.59.65.15.16.18.12.52.34Z"/></g></g></svg>