<svg xmlns="http://www.w3.org/2000/svg" xmlns:xlink="http://www.w3.org/1999/xlink" viewBox="0 0 70.05 48.88"><defs><style>.cls-1{fill:url(#Nueva_muestra_de_degradado_1)}.cls-2{fill:url(#Nueva_muestra_de_degradado_1-2)}.cls-3{fill:url(#Nueva_muestra_de_degradado_1-3)}.cls-4{fill:url(#Nueva_muestra_de_degradado_1-4)}.cls-5{fill:url(#Nueva_muestra_de_degradado_1-5)}</style><linearGradient id="Nueva_muestra_de_degradado_1" x1="44.35" x2="43.3" y1="-4.45" y2="49.02" gradientUnits="userSpaceOnUse"><stop offset="0" stop-color="#f3d536"/><stop offset=".45" stop-color="#e1b218"/><stop offset=".75" stop-color="#fbe546"/><stop offset="1" stop-color="#e1b218"/></linearGradient><linearGradient id="Nueva_muestra_de_degradado_1-2" x1="44.67" x2="43.62" y1="-4.45" y2="49.03" xlink:href="#Nueva_muestra_de_degradado_1"/><linearGradient id="Nueva_muestra_de_degradado_1-3" x1="58.58" x2="57.53" y1="-4.18" y2="49.3" xlink:href="#Nueva_muestra_de_degradado_1"/><linearGradient id="Nueva_muestra_de_degradado_1-4" x1="16.63" x2="15.59" y1="-5" y2="48.48" xlink:href="#Nueva_muestra_de_degradado_1"/><linearGradient id="Nueva_muestra_de_degradado_1-5" x1="20.56" x2="19.52" y1="-4.92" y2="48.55" xlink:href="#Nueva_muestra_de_degradado_1"/></defs><g id="Capa_2" data-name="Capa 2"><g id="Capa_1-2" data-name="Capa 1"><path d="M64.5,48.88H23.11V25H19.19a1.65,1.65,0,0,1-1.54-1.06,1.68,1.68,0,0,1,.46-1.82h0L43.8,0,69.49,22.1A1.64,1.64,0,0,1,68.41,25H64.49v23.9ZM26.27,45.73H61.34V21.83h3L43.81,4.16,23.28,21.83h3v23.9Z" class="cls-1"/><path d="M51.91,48.88H35.71V29.47a1.94,1.94,0,0,1,1.94-1.93H50a2,2,0,0,1,1.38.57,1.93,1.93,0,0,1,.56,1.37Zm-13-3.15h9.88v-15H38.87Zm9.88-16.27h0Z" class="cls-2"/><path d="M62.47,20.22,54,12.94V5.4h7.08l1.38.35V20.22Zm-5.3-8.73,2.14,1.84V8.55H57.17Z" class="cls-3"/><path d="M26.27,45.35H4.52V25.9H1.63A1.63,1.63,0,0,1,.55,23.05v0L21.66,4.88l10.66,9.17-9,7.78h3V45.35ZM7.68,42.2H23.11V25H19.19a1.64,1.64,0,0,1-1.1-2.86l0,0,9.36-8L21.66,9,5.74,22.74H7.68V42.2Z" class="cls-4"/><path d="M24.69,45.35H14.78v-16a2,2,0,0,1,2-2h3.58v3.15H17.93V42.2h6.76Z" class="cls-5"/></g></g></svg>