<svg xmlns="http://www.w3.org/2000/svg" xmlns:xlink="http://www.w3.org/1999/xlink" viewBox="0 0 41.14 58.05"><defs><style>.cls-1{fill:url(#Nueva_muestra_de_degradado_1);}</style><linearGradient id="Nueva_muestra_de_degradado_1" x1="20.57" y1="-5.25" x2="20.57" y2="53.48" gradientUnits="userSpaceOnUse"><stop offset="0" stop-color="#f3d536"/><stop offset="0.45" stop-color="#e1b218"/><stop offset="0.75" stop-color="#fbe546"/><stop offset="1" stop-color="#e1b218"/></linearGradient></defs><g id="Capa_2" data-name="Capa 2"><g id="Capa_1-2" data-name="Capa 1"><path class="cls-1" d="M39.84,25.38h-4.9V11.54a1.3,1.3,0,0,0-1.3-1.3H17.26a1.3,1.3,0,0,0-1.3,1.3V42.27a9,9,0,0,0-2.22-1.69v-39A1.63,1.63,0,0,0,12.12,0H5.46a1.62,1.62,0,0,0,0,3.24h5V39.53A9.3,9.3,0,1,0,9.3,58.05a9.28,9.28,0,0,0,7.64-4H34l3.32,3.5a1.65,1.65,0,0,0,1.18.51,1.59,1.59,0,0,0,1.11-.45,1.62,1.62,0,0,0,.07-2.29l-3.8-4a1.62,1.62,0,0,0-1.18-.51H18.37a9.62,9.62,0,0,0,.23-1.94H39.84a1.31,1.31,0,0,0,1.3-1.3V26.68A1.3,1.3,0,0,0,39.84,25.38ZM14.62,51.63h0a6.05,6.05,0,1,1,.74-2.89A6,6,0,0,1,14.62,51.63Zm3.94-38.79H32.34V25.38H18.56Zm20,33.41h-20V28h20Z"/></g></g></svg>