<svg xmlns="http://www.w3.org/2000/svg" xmlns:xlink="http://www.w3.org/1999/xlink" viewBox="0 0 64 55.66"><defs><style>.cls-1{fill:url(#Nueva_muestra_de_degradado_1)}.cls-2{fill:url(#Nueva_muestra_de_degradado_1-2)}.cls-3{fill:url(#Nueva_muestra_de_degradado_1-3)}</style><linearGradient id="Nueva_muestra_de_degradado_1" x1="28.53" x2="28.53" y1="1.24" y2="44.6" gradientUnits="userSpaceOnUse"><stop offset="0" stop-color="#f3d536"/><stop offset=".45" stop-color="#e1b218"/><stop offset=".75" stop-color="#fbe546"/><stop offset="1" stop-color="#e1b218"/></linearGradient><linearGradient id="Nueva_muestra_de_degradado_1-2" x1="28.53" x2="28.53" y1="1.24" y2="44.6" xlink:href="#Nueva_muestra_de_degradado_1"/><linearGradient id="Nueva_muestra_de_degradado_1-3" x1="32" x2="32" y1="1.24" y2="44.6" xlink:href="#Nueva_muestra_de_degradado_1"/></defs><g id="Capa_2" data-name="Capa 2"><g id="Capa_1-2" data-name="Capa 1"><path d="M29.24,35.42a1,1,0,1,0-1.41,1.41,1,1,0,0,0,1.41,0A1,1,0,0,0,29.24,35.42Z" class="cls-1"/><path d="M27.83,40a1,1,0,0,0,0,1.41,1,1,0,0,0,1.7-.7,1,1,0,0,0-.29-.71A1,1,0,0,0,27.83,40Z" class="cls-2"/><path d="M63,31.56H61.92L56,19V8.27a2.9,2.9,0,0,0,1.89-2.71,1,1,0,0,0-2,0,.9.9,0,1,1-1.79,0,1,1,0,0,0-1-1H44.84a3.3,3.3,0,0,0-4-1v-.2A3.35,3.35,0,0,0,35.16,1a3.34,3.34,0,0,0-4.7,0,3.35,3.35,0,0,0-5.7,2.38v.57a5.84,5.84,0,0,0-3.93-1.5,1,1,0,0,0-1,1V4.56H10.57a1,1,0,0,0-1,1,.89.89,0,0,1-.88.9.9.9,0,0,1-.91-.9,1,1,0,0,0-2,0A2.9,2.9,0,0,0,8,8.37V19L2.08,31.56H1a1,1,0,0,0-.71.29,1,1,0,0,0-.29.72,9,9,0,0,0,18,0,1,1,0,0,0-1-1H16L10,19V8.13A2.9,2.9,0,0,0,11.4,6.56h8.43V20.2a2.84,2.84,0,0,0,1.33,2.41l4.42,2.82v5.18H24.42a1,1,0,0,0-1,1v22h-8a1,1,0,1,0,0,2h38.1a1,1,0,0,0,0-2h-8v-22a1,1,0,0,0-1-1h-.79v-4.3c0-3.69,1.79-4.42,1.79-8.61V6.56h6.71A2.9,2.9,0,0,0,54,8.28V19L48.05,31.56H47a1,1,0,0,0-1,1,9,9,0,0,0,18,0,1,1,0,0,0-.29-.72A1,1,0,0,0,63,31.56ZM9,39.46a7,7,0,0,1-6.92-5.9H15.94A7.06,7.06,0,0,1,9,39.46ZM4.29,31.55,9,21.55l4.72,10ZM43.56,6.61v5.26a1.35,1.35,0,0,1-2.7,0V6.61A1.35,1.35,0,0,1,43.56,6.61Zm-4.7-3.26v8.52a1.35,1.35,0,0,1-2.7,0V3.35A1.35,1.35,0,0,1,38.86,3.35Zm-4.7,0v8.52a1.35,1.35,0,0,1-2.7,0V3.35A1.35,1.35,0,0,1,34.16,3.35Zm-4.7,0v8.52a1.35,1.35,0,0,1-2.7,0V3.35A1.35,1.35,0,0,1,29.46,3.35Zm-4,50.31v-21H43.56v21Zm2.16-23V24.88a1,1,0,0,0-.47-.85l-4.88-3.1a.86.86,0,0,1-.4-.73V4.54a4,4,0,0,1,2.93,3.8v3.53h0v5.85a1,1,0,0,0,.74,1c.74.34,4.74.51,6.39,4.53a1,1,0,0,0,1.85-.76,9.44,9.44,0,0,0-7-5.5v-2a3.33,3.33,0,0,0,3.7-.68,3.34,3.34,0,0,0,4.7,0,3.34,3.34,0,0,0,4.7,0,3.33,3.33,0,0,0,3.7.68V17.7c0,3.69-1.79,4.44-1.79,8.61v4.3ZM55,21.55l4.72,10H50.27Zm0,17.91a7.06,7.06,0,0,1-6.93-5.9H61.91A7,7,0,0,1,55,39.46Z" class="cls-3"/></g></g></svg>