<svg xmlns="http://www.w3.org/2000/svg" xmlns:xlink="http://www.w3.org/1999/xlink" viewBox="0 0 53.1 49.09"><defs><style>.cls-1{fill:url(#Nueva_muestra_de_degradado_1);}</style><linearGradient id="Nueva_muestra_de_degradado_1" x1="26.55" y1="-1.32" x2="26.55" y2="43.78" gradientUnits="userSpaceOnUse"><stop offset="0" stop-color="#f3d536"/><stop offset="0.45" stop-color="#e1b218"/><stop offset="0.75" stop-color="#fbe546"/><stop offset="1" stop-color="#e1b218"/></linearGradient></defs><g id="Capa_2" data-name="Capa 2"><g id="Capa_1-2" data-name="Capa 1"><path class="cls-1" d="M25.4,0C25,0,25.07.14,23,1.68L1.5,17.28a3.66,3.66,0,0,0,3.07,6.5V45.44a3.67,3.67,0,0,0,3.67,3.65H37.52a.92.92,0,1,0,0-1.83H33V32.62A.92.92,0,0,0,32,31.7H19.22a.92.92,0,0,0-.92.92V47.26H8.24A1.84,1.84,0,0,1,6.4,45.44V22.77L25.46,9,44.84,22.76v8a.92.92,0,0,0,1.83,0v-7a3.33,3.33,0,0,0,.94.13,2.94,2.94,0,0,0,.59,0,3.61,3.61,0,0,0,2.38-1.46,3.66,3.66,0,0,0-.81-5.12l-5-3.54a.88.88,0,0,0,.06-.33V5.16a.91.91,0,0,0-.91-.91H38.44a.92.92,0,0,0-.92.91V8.57l-9.71-6.9C25.69.13,25.87,0,25.4,0Zm0,2.26A9.91,9.91,0,0,1,27,3.33L48.7,18.76a1.83,1.83,0,0,1-.79,3.29,1.86,1.86,0,0,1-1.37-.33L26,7.16A.93.93,0,0,0,25.45,7a.87.87,0,0,0-.53.18L4.73,21.72a1.83,1.83,0,0,1-2.15-3L23.82,3.33A8,8,0,0,1,25.4,2.26Zm14,3.82H43v6.39L39.34,9.86s0-.08,0-.12ZM45,32.2a8.1,8.1,0,1,0,8.11,8.1A8.11,8.11,0,0,0,45,32.2ZM20.13,33.53h11V47.26h-11ZM45,34a6.3,6.3,0,1,1-6.3,6.3A6.31,6.31,0,0,1,45,34Zm2.7,2.7a.88.88,0,0,0-.74.4l-3.11,4.65-2-1.3a.9.9,0,1,0-1,1.5l2.7,1.8a.94.94,0,0,0,.5.15.9.9,0,0,0,.75-.4l3.6-5.4a.89.89,0,0,0-.25-1.25A.91.91,0,0,0,47.69,36.7Z"/></g></g></svg>