<svg xmlns="http://www.w3.org/2000/svg" xmlns:xlink="http://www.w3.org/1999/xlink" viewBox="0 0 60.74 60.73"><defs><style>.cls-1{fill:url(#Nueva_muestra_de_degradado_1);}</style><linearGradient id="Nueva_muestra_de_degradado_1" x1="30.37" y1="-1.8" x2="30.37" y2="56.8" gradientUnits="userSpaceOnUse"><stop offset="0" stop-color="#f3d536"/><stop offset="0.45" stop-color="#e1b218"/><stop offset="0.75" stop-color="#fbe546"/><stop offset="1" stop-color="#e1b218"/></linearGradient></defs><g id="Capa_2" data-name="Capa 2"><g id="Capa_1-2" data-name="Capa 1"><path class="cls-1" d="M50.92,0a1.35,1.35,0,0,0-.79.37l-11,10.34a1.38,1.38,0,0,0-.43,1v8.54l-2.85,3.25-9.36-8a1.37,1.37,0,0,0-1-.32,1.39,1.39,0,0,0-.78.32L.49,36.21a1.38,1.38,0,0,0-.17,1.94,1.4,1.4,0,0,0,1.08.5H6.23v20.7a1.38,1.38,0,0,0,1.38,1.38H43.49a1.38,1.38,0,0,0,0-2.76H33.14V41.41A1.38,1.38,0,0,0,31.76,40H19.21A1.37,1.37,0,0,0,18,41.41V58H9V37.27a1.38,1.38,0,0,0-1.38-1.38H5.15L25.55,18.4,45.94,35.89H43.49a1.37,1.37,0,0,0-1.38,1.38V53.83a1.38,1.38,0,0,0,2.76,0V38.65H49.7a1.38,1.38,0,0,0,1.39-1.37,1.36,1.36,0,0,0-.49-1.07L37.9,25.32l2.83-3.23h7.59a1.42,1.42,0,0,0,1-.41l11-11a1.39,1.39,0,0,0,0-2h0L52.05.4A1.39,1.39,0,0,0,50.92,0Zm.13,3.3,6.36,6.36-9.68,9.66H41.42v-7ZM20.72,42.79h9.66V58H20.72ZM23.48,49a1.38,1.38,0,1,0,1.38,1.38A1.37,1.37,0,0,0,23.48,49Z"/></g></g></svg>