<svg xmlns="http://www.w3.org/2000/svg" xmlns:xlink="http://www.w3.org/1999/xlink" viewBox="0 0 79.2 50.4"><defs><style>.cls-1,.cls-2{fill-rule:evenodd}.cls-1{fill:url(#Nueva_muestra_de_degradado_1)}.cls-2{fill:url(#Nueva_muestra_de_degradado_1-2)}</style><linearGradient id="Nueva_muestra_de_degradado_1" x1="20.19" x2="20.19" y1="-1.06" y2="45.22" gradientUnits="userSpaceOnUse"><stop offset="0" stop-color="#f3d536"/><stop offset=".45" stop-color="#e1b218"/><stop offset=".75" stop-color="#fbe546"/><stop offset="1" stop-color="#e1b218"/></linearGradient><linearGradient id="Nueva_muestra_de_degradado_1-2" x1="40.46" x2="40.46" y1="-1.06" y2="45.22" xlink:href="#Nueva_muestra_de_degradado_1"/></defs><g id="Capa_2" data-name="Capa 2"><g id="Capa_1-2" data-name="Capa 1"><path d="M.92,48.6a.9.9,0,1,0,0,1.8H39.46a.9.9,0,0,0,0-1.8H.92Z" class="cls-1"/><path d="M14.31,0A4.41,4.41,0,0,0,9.89,3.18,4.64,4.64,0,0,0,13,8.58L7.22,30.75a6.43,6.43,0,0,0-1-.08,4.43,4.43,0,0,0-4.41,3.21c-.58,2.18.71,4.81,3.79,5.65l17.92,4.93c3.08.84,5.53-.8,6.1-3A4.7,4.7,0,0,0,26.54,36l1.77-6.76L72.94,41.53c3.1.84,5.55-.77,6.13-3s-.73-4.85-3.83-5.69L30.56,20.65l1.74-6.72a4.62,4.62,0,0,0,5.4-3.15C38.27,8.59,37,6,33.85,5.12L16,.23A6.39,6.39,0,0,0,14.31,0Zm0,1.77a5.34,5.34,0,0,1,1.21.2L33.4,6.87c2.37.64,2.89,2.19,2.56,3.46S34.43,12.65,32.08,12L14.17,7.09c-2.36-.64-2.89-2.21-2.56-3.46A2.49,2.49,0,0,1,14.31,1.77Zm.45,7.35,15.8,4.36-5.77,22L9,31.18ZM30.08,22.4,74.76,34.64c2.38.64,2.9,2.19,2.56,3.46s-1.53,2.36-3.91,1.71L28.76,27.52l1.32-5.12Zm-23.82,10a5.17,5.17,0,0,1,1.21.2l17.92,4.89c2.35.65,2.86,2.22,2.53,3.49S26.39,43.38,24,42.74l-17.92-5c-2.35-.64-2.86-2.2-2.53-3.46A2.49,2.49,0,0,1,6.26,32.44Z" class="cls-2"/></g></g></svg>