<svg xmlns="http://www.w3.org/2000/svg" viewBox="0 0 24 86.63"><defs><style>.cls-1{fill:#003869;}</style></defs><g id="Capa_2" data-name="Capa 2"><g id="Capa_1-2" data-name="Capa 1"><path class="cls-1" d="M10.93,0h2.14A10.94,10.94,0,0,1,24,10.93V75.7A10.94,10.94,0,0,1,13.07,86.63H10.93A11,11,0,0,1,0,75.7V10.93A11,11,0,0,1,10.93,0Zm2.14,84.57a8.88,8.88,0,0,0,8.87-8.87V10.93a8.88,8.88,0,0,0-8.87-8.87H10.93a8.88,8.88,0,0,0-8.87,8.87V75.7a8.88,8.88,0,0,0,8.87,8.87Z"/><path class="cls-1" d="M7.86,18.87h0a.81.81,0,0,0,1.17,0l2.14-2.34V25a.82.82,0,0,0,.83.84.83.83,0,0,0,.84-.84V16.49L15,18.83a.79.79,0,0,0,1.16,0h0a.81.81,0,0,0,0-1.07L12.6,13.85a.81.81,0,0,0-1.17,0L7.86,17.76A.86.86,0,0,0,7.86,18.87Z"/><path class="cls-1" d="M17.13,70.74a2.88,2.88,0,0,1-.67,1.2,1.24,1.24,0,0,1-.92.44.67.67,0,0,1-.7-.52A3.22,3.22,0,0,0,16.34,69a2.57,2.57,0,0,0-.42-1.57,1.48,1.48,0,0,0-1.25-.56,1.44,1.44,0,0,0-.88.26,2,2,0,0,0-.56.71,12.32,12.32,0,0,0-.53,1.35A9.28,9.28,0,0,1,12,70.74a2.69,2.69,0,0,1-.88,1A2.47,2.47,0,0,1,9.79,72a2.33,2.33,0,0,1-1.92-.81,3.53,3.53,0,0,1-.66-2.31,4.71,4.71,0,0,1,.44-2.14,1.3,1.3,0,0,1,1.17-.87.68.68,0,0,1,.72.52,2.72,2.72,0,0,0-1,1A3.28,3.28,0,0,0,8.25,69c0,1.29.47,1.93,1.42,1.93a1.33,1.33,0,0,0,.87-.26,1.87,1.87,0,0,0,.55-.66c.14-.27.3-.66.49-1.15A17.78,17.78,0,0,1,12.33,67a2.69,2.69,0,0,1,.85-1,2.53,2.53,0,0,1,1.42-.37,2.39,2.39,0,0,1,2.12.95,4.1,4.1,0,0,1,.66,2.4A5.64,5.64,0,0,1,17.13,70.74Z"/><path class="cls-1" d="M16.69,63.64a2.76,2.76,0,0,1-2,.64H10.84a1,1,0,0,1-.63-.19.71.71,0,0,1-.23-.56,1.23,1.23,0,0,1,.06-.39h4.77a1.7,1.7,0,0,0,1.18-.4,1.41,1.41,0,0,0,.43-1.09,1.38,1.38,0,0,0-.79-1.25,4.68,4.68,0,0,0-2.26-.46H10.84a1,1,0,0,1-.63-.19.71.71,0,0,1-.23-.56A1.23,1.23,0,0,1,10,58.8h6.4a.92.92,0,0,1,.62.19.71.71,0,0,1,.23.56,1.23,1.23,0,0,1-.06.39H15.77a1.94,1.94,0,0,1,1.61,2A2.23,2.23,0,0,1,16.69,63.64Z"/><path class="cls-1" d="M10.33,51.85a2.77,2.77,0,0,1,1.25-1,4.62,4.62,0,0,1,1.89-.35,4.77,4.77,0,0,1,2.06.42,3.17,3.17,0,0,1,1.36,1.19,3.28,3.28,0,0,1,.49,1.78,5.22,5.22,0,0,1-.08.91c-.05.28-.13.59-.23.95a5.7,5.7,0,0,0-.25,1.12l-.31.1a4,4,0,0,0-1-.27A11.36,11.36,0,0,0,14,56.64H7.9a1,1,0,0,1-.63-.2A.75.75,0,0,1,7,55.87a1.21,1.21,0,0,1,.06-.38h4a2.92,2.92,0,0,1-.9-.92,2.34,2.34,0,0,1-.32-1.25A2.52,2.52,0,0,1,10.33,51.85Zm5.32.44a3.55,3.55,0,0,0-2.22-.61,3.27,3.27,0,0,0-1.93.49,1.57,1.57,0,0,0-.68,1.36,1.72,1.72,0,0,0,.67,1.41,3,3,0,0,0,1.9.52h.5a11.25,11.25,0,0,1,1.32.06,3.82,3.82,0,0,1,.95.25l.12-.59a5,5,0,0,0,.12-.58,3.35,3.35,0,0,0,.05-.63A2,2,0,0,0,15.65,52.29Z"/><path class="cls-1" d="M8.73,49a.84.84,0,0,1-.61.24.82.82,0,0,1-.85-.85.84.84,0,0,1,.85-.86.81.81,0,0,1,.61.25.83.83,0,0,1,.25.61A.86.86,0,0,1,8.73,49Zm8.5,0H10.84a.92.92,0,0,1-.63-.2.69.69,0,0,1-.23-.56,1.23,1.23,0,0,1,.06-.39h6.4a.92.92,0,0,1,.62.2.71.71,0,0,1,.23.56A1.23,1.23,0,0,1,17.23,48.94Z"/><path class="cls-1" d="M17.23,45.69H10.84a1,1,0,0,1-.63-.19.71.71,0,0,1-.23-.56,1.34,1.34,0,0,1,.06-.4H12a3.21,3.21,0,0,1-1.52-.84,1.81,1.81,0,0,1-.5-1.26c0-.52.23-.78.7-.78a.72.72,0,0,1,.62.28.91.91,0,0,0-.07.42A1.78,1.78,0,0,0,12.12,44a6,6,0,0,0,3,.56h1.3a.92.92,0,0,1,.62.2.71.71,0,0,1,.23.56A1.23,1.23,0,0,1,17.23,45.69Z"/></g></g></svg>